# Blender v2.82 (sub 7) OBJ File: 'CG_Test.blend'
# www.blender.org
mtllib Herzform_Trigger.mtl
o Herzform_Trigger_Cube_Cube.022
v 0.142232 0.108464 -0.847891
v 0.176754 0.000000 -0.915075
v 0.120089 0.000000 -0.888975
v 0.074358 0.000000 -0.852339
v 0.073797 0.168697 -0.773484
v 0.000000 0.000000 -0.753966
v 0.229857 0.111023 -0.843443
v 0.248087 0.000000 -0.916054
v 0.350352 0.000000 -0.879652
v 0.317483 0.095747 -0.838995
v 0.405108 0.000000 -0.834547
v 0.225382 0.158525 -0.770797
v 0.338073 0.118379 -0.768111
v 0.450764 0.000000 -0.765425
v 0.354078 0.124349 -0.681009
v 0.472104 0.000000 -0.681009
v 0.236052 0.175448 -0.681009
v 0.118026 0.185584 -0.681009
v 0.000000 0.188464 -0.681009
v 0.115018 0.187633 -0.585512
v 0.000000 0.190254 -0.585512
v 0.101235 0.184784 -0.457023
v 0.230037 0.166684 -0.585512
v 0.345055 0.121075 -0.585512
v 0.202471 0.163987 -0.457023
v 0.303706 0.089526 -0.457023
v 0.460073 0.000000 -0.585512
v 0.404941 0.000000 -0.457023
v 0.249668 0.000000 -0.285958
v 0.124834 0.084687 -0.285958
v 0.000000 0.123862 -0.285958
v 0.000000 0.031521 -0.138150
v 0.080769 0.000000 -0.138150
v 0.000000 0.000000 -0.065780
v -0.176754 0.000000 -0.915075
v -0.142232 0.108464 -0.847891
v -0.120089 0.000000 -0.888975
v -0.074358 0.000000 -0.852339
v -0.073797 0.168697 -0.773484
v -0.248087 0.000000 -0.916054
v -0.229857 0.111023 -0.843443
v -0.350352 0.000000 -0.879652
v -0.317483 0.095747 -0.838995
v -0.405108 0.000000 -0.834547
v -0.225382 0.158525 -0.770797
v -0.338073 0.118379 -0.768111
v -0.450764 0.000000 -0.765425
v -0.354078 0.124349 -0.681009
v -0.472104 0.000000 -0.681009
v -0.236052 0.175448 -0.681009
v -0.118026 0.185584 -0.681009
v -0.115018 0.187633 -0.585512
v -0.101235 0.184784 -0.457023
v -0.230037 0.166684 -0.585512
v -0.345055 0.121075 -0.585512
v -0.202471 0.163987 -0.457023
v -0.303706 0.089526 -0.457023
v -0.460073 0.000000 -0.585512
v -0.404941 0.000000 -0.457023
v -0.249668 0.000000 -0.285958
v -0.124834 0.084687 -0.285958
v 0.000000 0.186959 -0.457023
v -0.080769 0.000000 -0.138150
v 0.142232 -0.108464 -0.847891
v 0.073797 -0.168697 -0.773484
v 0.229857 -0.111023 -0.843443
v 0.317483 -0.095747 -0.838995
v 0.225382 -0.158525 -0.770797
v 0.338073 -0.118379 -0.768111
v 0.354078 -0.124349 -0.681009
v 0.236052 -0.175448 -0.681009
v 0.118026 -0.185584 -0.681009
v 0.000000 -0.188464 -0.681009
v 0.115018 -0.187633 -0.585512
v 0.101235 -0.184784 -0.457023
v 0.000000 -0.190254 -0.585512
v 0.230037 -0.166684 -0.585512
v 0.345055 -0.121075 -0.585512
v 0.202471 -0.163987 -0.457023
v 0.303706 -0.089526 -0.457023
v 0.124834 -0.084687 -0.285958
v 0.000000 -0.123862 -0.285958
v 0.000000 -0.186959 -0.457023
v 0.000000 -0.031521 -0.138150
v -0.142232 -0.108464 -0.847891
v -0.073797 -0.168697 -0.773484
v -0.229857 -0.111023 -0.843443
v -0.317483 -0.095747 -0.838995
v -0.225382 -0.158525 -0.770797
v -0.338073 -0.118379 -0.768111
v -0.354078 -0.124349 -0.681009
v -0.236052 -0.175448 -0.681009
v -0.118026 -0.185584 -0.681009
v -0.115018 -0.187633 -0.585512
v -0.101235 -0.184784 -0.457023
v -0.230037 -0.166684 -0.585512
v -0.345055 -0.121075 -0.585512
v -0.202471 -0.163987 -0.457023
v -0.303706 -0.089526 -0.457023
v -0.124834 -0.084687 -0.285958
v -0.485566 0.485566 -0.014434
v -0.514434 0.514434 0.014434
v -0.485566 0.485566 -0.985566
v -0.514434 0.514434 -1.014434
v -0.485566 -0.485566 -0.014434
v -0.514434 -0.514434 0.014434
v -0.485566 -0.485566 -0.985566
v -0.514434 -0.514434 -1.014434
v 0.485566 0.485566 -0.014434
v 0.514434 0.514434 0.014434
v 0.485566 0.485566 -0.985566
v 0.514434 0.514434 -1.014434
v 0.485566 -0.485566 -0.014434
v 0.514434 -0.514434 0.014434
v 0.485566 -0.485566 -0.985566
v 0.514434 -0.514434 -1.014434
v -0.500000 0.475000 -0.025000
v -0.500000 0.475000 -0.975000
v -0.500000 -0.475000 -0.975000
v -0.500000 -0.475000 -0.025000
v -0.475000 -0.500000 -0.025000
v -0.475000 -0.500000 -0.975000
v 0.475000 -0.500000 -0.975000
v 0.475000 -0.500000 -0.025000
v 0.500000 -0.475000 -0.025000
v 0.500000 -0.475000 -0.975000
v 0.500000 0.475000 -0.975000
v 0.500000 0.475000 -0.025000
v 0.475000 0.500000 -0.025000
v 0.475000 0.500000 -0.975000
v -0.475000 0.500000 -0.975000
v -0.475000 0.500000 -0.025000
v -0.475000 -0.475000 0.000000
v 0.475000 -0.475000 0.000000
v 0.475000 0.475000 -0.000000
v -0.475000 0.475000 -0.000000
v 0.475000 -0.475000 -1.000000
v -0.475000 -0.475000 -1.000000
v -0.475000 0.475000 -1.000000
v 0.475000 0.475000 -1.000000
vt 0.000000 0.000000
vt 0.000000 0.000000
vt 0.000000 0.000000
vt 0.000000 0.000000
vt 0.000000 0.000000
vt 0.000000 0.000000
vt 0.000000 0.000000
vt 0.000000 0.000000
vt 0.000000 0.000000
vt 0.000000 0.000000
vt 0.000000 0.000000
vt 0.000000 0.000000
vt 0.000000 0.000000
vt 0.000000 0.000000
vt 0.000000 0.000000
vt 0.000000 0.000000
vt 0.000000 0.000000
vt 0.000000 0.000000
vt 0.000000 0.000000
vt 0.000000 0.000000
vt 0.000000 0.000000
vt 0.000000 0.000000
vt 0.000000 0.000000
vt 0.000000 0.000000
vt 0.000000 0.000000
vt 0.000000 0.000000
vt 0.000000 0.000000
vt 0.000000 0.000000
vt 0.000000 0.000000
vt 0.000000 0.000000
vt 0.000000 0.000000
vt 0.000000 0.000000
vt 0.000000 0.000000
vt 0.000000 0.000000
vt 0.000000 0.000000
vt 0.000000 0.000000
vt 0.000000 0.000000
vt 0.000000 0.000000
vt 0.000000 0.000000
vt 0.000000 0.000000
vt 0.000000 0.000000
vt 0.000000 0.000000
vt 0.000000 0.000000
vt 0.000000 0.000000
vt 0.000000 0.000000
vt 0.000000 0.000000
vt 0.000000 0.000000
vt 0.000000 0.000000
vt 0.000000 0.000000
vt 0.000000 0.000000
vt 0.000000 0.000000
vt 0.000000 0.000000
vt 0.000000 0.000000
vt 0.000000 0.000000
vt 0.000000 0.000000
vt 0.000000 0.000000
vt 0.000000 0.000000
vt 0.000000 0.000000
vt 0.000000 0.000000
vt 0.000000 0.000000
vt 0.000000 0.000000
vt 0.000000 0.000000
vt 0.000000 0.000000
vt 0.000000 0.000000
vt 0.000000 0.000000
vt 0.000000 0.000000
vt 0.000000 0.000000
vt 0.000000 0.000000
vt 0.000000 0.000000
vt 0.000000 0.000000
vt 0.000000 0.000000
vt 0.000000 0.000000
vt 0.000000 0.000000
vt 0.000000 0.000000
vt 0.000000 0.000000
vt 0.000000 0.000000
vt 0.000000 0.000000
vt 0.000000 0.000000
vt 0.000000 0.000000
vt 0.000000 0.000000
vt 0.000000 0.000000
vt 0.000000 0.000000
vt 0.000000 0.000000
vt 0.000000 0.000000
vt 0.000000 0.000000
vt 0.000000 0.000000
vt 0.000000 0.000000
vt 0.000000 0.000000
vt 0.000000 0.000000
vt 0.000000 0.000000
vt 0.000000 0.000000
vt 0.000000 0.000000
vt 0.000000 0.000000
vt 0.000000 0.000000
vt 0.000000 0.000000
vt 0.000000 0.000000
vt 0.000000 0.000000
vt 0.000000 0.000000
vt 0.000000 0.000000
vt 0.000000 0.000000
vt 0.625000 0.000000
vt 0.375000 0.000000
vt 0.375000 0.000000
vt 0.625000 0.000000
vt 0.625000 0.250000
vt 0.625000 0.000000
vt 0.625000 0.250000
vt 0.375000 0.250000
vt 0.625000 0.250000
vt 0.375000 0.250000
vt 0.375000 0.250000
vt 0.375000 0.000000
vt 0.625000 0.250000
vt 0.375000 0.250000
vt 0.625000 0.500000
vt 0.625000 0.500000
vt 0.375000 0.500000
vt 0.625000 0.500000
vt 0.375000 0.500000
vt 0.375000 0.500000
vt 0.625000 0.500000
vt 0.375000 0.500000
vt 0.625000 0.750000
vt 0.625000 0.750000
vt 0.375000 0.750000
vt 0.625000 0.750000
vt 0.375000 0.750000
vt 0.375000 0.750000
vt 0.625000 0.750000
vt 0.375000 0.750000
vt 0.625000 1.000000
vt 0.625000 1.000000
vt 0.375000 1.000000
vt 0.625000 1.000000
vt 0.375000 1.000000
vt 0.375000 1.000000
vt 0.375000 0.500000
vt 0.125000 0.500000
vt 0.125000 0.500000
vt 0.375000 0.750000
vt 0.125000 0.750000
vt 0.125000 0.750000
vt 0.125000 0.750000
vt 0.125000 0.500000
vt 0.875000 0.500000
vt 0.625000 0.500000
vt 0.875000 0.500000
vt 0.875000 0.750000
vt 0.875000 0.500000
vt 0.875000 0.750000
vt 0.625000 0.750000
vt 0.875000 0.750000
vn -0.3844 0.3946 -0.8346
vn -0.5758 0.3898 -0.7187
vn -0.7684 0.2689 -0.5808
vn -0.0115 0.5460 -0.8377
vn 0.2981 0.4580 -0.8375
vn 0.5580 0.4792 -0.6774
vn 0.0644 0.8038 -0.5914
vn 0.1716 0.8294 -0.5317
vn 0.6574 0.6159 -0.4342
vn 0.7134 0.6771 -0.1803
vn 0.3937 0.9093 -0.1347
vn 0.0839 0.9774 -0.1942
vn -0.7312 0.2463 -0.6362
vn 0.0239 0.9814 -0.1907
vn 0.0244 0.9995 -0.0207
vn 0.0228 0.9994 0.0246
vn 0.0852 0.9917 0.0964
vn 0.3964 0.9155 0.0688
vn 0.1789 0.9821 0.0590
vn 0.3483 0.8782 0.3277
vn 0.7220 0.6858 0.0917
vn 0.6157 0.6962 0.3691
vn 0.5677 0.6420 0.5153
vn 0.4732 0.6975 0.5381
vn 0.1767 0.8600 0.4788
vn 0.2660 0.8476 0.4592
vn 0.3059 0.7839 0.5403
vn 0.3369 0.8632 0.3760
vn 0.4725 0.6965 0.5400
vn 0.3844 0.3946 -0.8346
vn 0.5758 0.3898 -0.7187
vn 0.7684 0.2689 -0.5808
vn 0.0115 0.5460 -0.8377
vn -0.2981 0.4580 -0.8375
vn -0.5580 0.4792 -0.6774
vn -0.0033 0.8370 -0.5471
vn -0.3195 0.8719 -0.3712
vn -0.6574 0.6159 -0.4342
vn -0.7134 0.6771 -0.1803
vn -0.3324 0.9188 -0.2127
vn -0.0692 0.9750 -0.2111
vn 0.7312 0.2463 -0.6362
vn -0.0239 0.9814 -0.1907
vn -0.0244 0.9995 -0.0207
vn -0.0228 0.9994 0.0246
vn -0.0852 0.9917 0.0964
vn -0.3964 0.9155 0.0688
vn -0.1789 0.9821 0.0590
vn -0.3483 0.8782 0.3277
vn -0.7223 0.6856 0.0910
vn -0.6923 0.6577 0.2970
vn -0.5677 0.6420 0.5153
vn -0.5061 0.6881 0.5200
vn -0.1767 0.8600 0.4788
vn -0.0202 0.9380 0.3460
vn -0.3059 0.7839 0.5403
vn -0.3369 0.8632 0.3760
vn -0.4725 0.6965 0.5400
vn -0.3844 -0.3946 -0.8346
vn -0.5758 -0.3898 -0.7187
vn -0.7684 -0.2689 -0.5808
vn -0.0115 -0.5460 -0.8377
vn 0.2981 -0.4580 -0.8375
vn 0.5580 -0.4792 -0.6774
vn 0.0033 -0.8370 -0.5471
vn 0.3195 -0.8719 -0.3712
vn 0.6574 -0.6159 -0.4342
vn 0.7134 -0.6771 -0.1803
vn 0.3324 -0.9188 -0.2127
vn 0.0692 -0.9750 -0.2111
vn -0.7312 -0.2463 -0.6362
vn 0.0239 -0.9814 -0.1907
vn 0.0244 -0.9995 -0.0207
vn 0.0228 -0.9994 0.0246
vn 0.0852 -0.9917 0.0964
vn 0.3964 -0.9155 0.0688
vn 0.1789 -0.9821 0.0590
vn 0.3483 -0.8782 0.3277
vn 0.7223 -0.6856 0.0910
vn 0.6923 -0.6577 0.2970
vn 0.5677 -0.6420 0.5153
vn 0.5061 -0.6881 0.5200
vn 0.1767 -0.8600 0.4788
vn 0.0202 -0.9380 0.3460
vn 0.3059 -0.7839 0.5403
vn 0.3369 -0.8632 0.3760
vn 0.4725 -0.6965 0.5400
vn 0.3844 -0.3946 -0.8346
vn 0.5758 -0.3898 -0.7187
vn 0.7684 -0.2689 -0.5808
vn 0.0115 -0.5460 -0.8377
vn -0.2981 -0.4580 -0.8375
vn -0.5580 -0.4792 -0.6774
vn -0.0644 -0.8038 -0.5914
vn -0.1716 -0.8294 -0.5317
vn -0.6574 -0.6159 -0.4342
vn -0.7134 -0.6771 -0.1803
vn -0.3937 -0.9093 -0.1347
vn -0.0839 -0.9774 -0.1942
vn 0.7312 -0.2463 -0.6362
vn -0.0239 -0.9814 -0.1907
vn -0.0244 -0.9995 -0.0207
vn -0.0228 -0.9994 0.0246
vn -0.0852 -0.9917 0.0964
vn -0.3964 -0.9155 0.0688
vn -0.1789 -0.9821 0.0590
vn -0.3483 -0.8782 0.3277
vn -0.7220 -0.6858 0.0917
vn -0.6157 -0.6962 0.3691
vn -0.5677 -0.6420 0.5153
vn -0.4732 -0.6975 0.5381
vn -0.1767 -0.8600 0.4788
vn -0.2660 -0.8476 0.4592
vn -0.3059 -0.7839 0.5403
vn -0.3369 -0.8632 0.3760
vn -0.4725 -0.6965 0.5400
vn 0.0274 0.5327 -0.8459
vn -0.5236 0.3593 -0.7725
vn 0.1388 0.5579 -0.8182
vn 0.0033 0.8370 -0.5471
vn 0.3195 0.8719 -0.3712
vn 0.6870 0.6104 -0.3944
vn 0.7148 0.6764 -0.1777
vn 0.3324 0.9188 -0.2127
vn 0.0692 0.9750 -0.2111
vn 0.0228 0.9996 -0.0187
vn 0.0215 0.9994 0.0256
vn 0.1792 0.9837 -0.0155
vn 0.3665 0.9242 0.1079
vn 0.2010 0.9786 0.0433
vn 0.5865 0.7973 0.1426
vn 0.7223 0.6856 0.0910
vn 0.6923 0.6577 0.2970
vn 0.5061 0.6881 0.5200
vn 0.0202 0.9380 0.3460
vn 0.2572 0.8196 0.5120
vn -0.0274 0.5327 -0.8459
vn 0.5236 0.3593 -0.7725
vn -0.1388 0.5579 -0.8182
vn -0.0644 0.8038 -0.5914
vn -0.1716 0.8294 -0.5317
vn -0.6870 0.6104 -0.3944
vn -0.7148 0.6764 -0.1777
vn -0.3937 0.9093 -0.1347
vn -0.0839 0.9774 -0.1942
vn -0.0228 0.9996 -0.0187
vn -0.0215 0.9994 0.0256
vn -0.1792 0.9837 -0.0155
vn -0.3665 0.9242 0.1079
vn -0.2010 0.9786 0.0433
vn -0.5865 0.7973 0.1426
vn -0.7220 0.6858 0.0917
vn -0.6157 0.6962 0.3691
vn -0.4732 0.6975 0.5381
vn -0.2660 0.8476 0.4592
vn -0.2572 0.8196 0.5120
vn 0.0274 -0.5327 -0.8459
vn -0.5236 -0.3593 -0.7725
vn 0.1388 -0.5579 -0.8182
vn 0.0644 -0.8038 -0.5914
vn 0.1716 -0.8294 -0.5317
vn 0.6870 -0.6104 -0.3944
vn 0.7148 -0.6764 -0.1777
vn 0.3937 -0.9093 -0.1347
vn 0.0839 -0.9774 -0.1942
vn 0.0228 -0.9996 -0.0187
vn 0.0215 -0.9994 0.0256
vn 0.1792 -0.9837 -0.0155
vn 0.3665 -0.9242 0.1079
vn 0.2010 -0.9786 0.0433
vn 0.5865 -0.7973 0.1426
vn 0.7220 -0.6858 0.0917
vn 0.6157 -0.6962 0.3691
vn 0.4732 -0.6975 0.5381
vn 0.2660 -0.8476 0.4592
vn 0.2572 -0.8196 0.5120
vn -0.0274 -0.5327 -0.8459
vn 0.5236 -0.3593 -0.7725
vn -0.1388 -0.5579 -0.8182
vn -0.0033 -0.8370 -0.5471
vn -0.3195 -0.8719 -0.3712
vn -0.6870 -0.6104 -0.3944
vn -0.7148 -0.6764 -0.1777
vn -0.3324 -0.9188 -0.2127
vn -0.0692 -0.9750 -0.2111
vn -0.0228 -0.9996 -0.0187
vn -0.0215 -0.9994 0.0256
vn -0.1792 -0.9837 -0.0155
vn -0.3665 -0.9242 0.1079
vn -0.2010 -0.9786 0.0433
vn -0.5865 -0.7973 0.1426
vn -0.7223 -0.6856 0.0910
vn -0.6923 -0.6577 0.2970
vn -0.5061 -0.6881 0.5200
vn -0.0202 -0.9380 0.3460
vn -0.2572 -0.8196 0.5120
vn 0.5907 -0.8069 0.0000
vn -0.9391 -0.3437 0.0000
vn 0.5907 0.0000 0.8069
vn -0.9391 0.0000 0.3437
vn 0.5907 0.8069 -0.0000
vn -0.9391 0.3437 -0.0000
vn 0.5907 -0.0000 -0.8069
vn -0.9391 0.0000 -0.3437
vn 0.8069 0.5907 -0.0000
vn 0.3437 -0.9391 0.0000
vn 0.0000 0.5907 0.8069
vn 0.0000 -0.9391 0.3437
vn -0.8069 0.5907 -0.0000
vn -0.3437 -0.9391 0.0000
vn 0.0000 0.5907 -0.8069
vn 0.0000 -0.9391 -0.3437
vn -0.5907 0.8069 -0.0000
vn 0.9391 0.3437 -0.0000
vn -0.5907 0.0000 0.8069
vn 0.9391 0.0000 0.3437
vn -0.5907 -0.8069 0.0000
vn 0.9391 -0.3437 0.0000
vn -0.5907 -0.0000 -0.8069
vn 0.9391 -0.0000 -0.3437
vn -0.8069 -0.5907 0.0000
vn -0.3437 0.9391 -0.0000
vn 0.0000 -0.5907 0.8069
vn 0.0000 0.9391 0.3437
vn 0.8069 -0.5907 0.0000
vn 0.3437 0.9391 -0.0000
vn 0.0000 -0.5907 -0.8069
vn 0.0000 0.9391 -0.3437
vn 0.0000 0.8069 -0.5907
vn 0.0000 0.3437 0.9391
vn -0.8069 -0.0000 -0.5907
vn -0.3437 0.0000 0.9391
vn 0.0000 -0.8069 -0.5907
vn 0.0000 -0.3437 0.9391
vn 0.8069 -0.0000 -0.5907
vn 0.3437 0.0000 0.9391
vn 0.0000 0.8069 0.5907
vn 0.0000 0.3437 -0.9391
vn 0.8069 0.0000 0.5907
vn 0.3437 -0.0000 -0.9391
vn 0.0000 -0.8069 0.5907
vn 0.0000 -0.3437 -0.9391
vn -0.8069 0.0000 0.5907
vn -0.3437 -0.0000 -0.9391
usemtl None.003
s off
f 1/1/1 2/2/1 3/3/1
f 4/4/2 1/1/2 3/3/2
f 5/5/3 4/4/3 6/6/3
f 7/7/4 8/8/4 2/2/4
f 9/9/5 8/8/5 10/10/5
f 11/11/6 9/9/6 10/10/6
f 12/12/7 1/1/7 5/5/7
f 12/12/8 10/10/8 7/7/8
f 11/11/9 13/13/9 14/14/9
f 14/14/10 15/15/10 16/16/10
f 13/13/11 17/17/11 15/15/11
f 12/12/12 18/18/12 17/17/12
f 5/5/13 6/6/13 19/19/13
f 19/19/14 18/18/14 5/5/14
f 19/19/15 20/20/15 18/18/15
f 21/21/16 22/22/16 20/20/16
f 18/18/17 23/23/17 17/17/17
f 17/17/18 24/24/18 15/15/18
f 20/20/19 25/25/19 23/23/19
f 23/23/20 26/26/20 24/24/20
f 27/27/21 15/15/21 24/24/21
f 28/28/22 24/24/22 26/26/22
f 28/28/23 26/26/23 29/29/23
f 29/29/24 25/25/24 30/30/24
f 25/25/25 22/22/25 30/30/25
f 22/22/26 31/31/26 30/30/26
f 30/30/27 32/32/27 33/33/27
f 33/33/28 32/32/28 34/34/28
f 29/29/29 30/30/29 33/33/29
f 35/35/30 36/36/30 37/37/30
f 38/38/31 37/37/31 36/36/31
f 38/38/32 39/39/32 6/6/32
f 40/40/33 41/41/33 35/35/33
f 42/42/34 43/43/34 40/40/34
f 44/44/35 43/43/35 42/42/35
f 45/45/36 36/36/36 41/41/36
f 45/45/37 43/43/37 46/46/37
f 46/46/38 44/44/38 47/47/38
f 48/48/39 47/47/39 49/49/39
f 46/46/40 50/50/40 45/45/40
f 45/45/41 51/51/41 39/39/41
f 39/39/42 19/19/42 6/6/42
f 19/19/43 39/39/43 51/51/43
f 52/52/44 19/19/44 51/51/44
f 53/53/45 21/21/45 52/52/45
f 54/54/46 51/51/46 50/50/46
f 55/55/47 50/50/47 48/48/47
f 56/56/48 52/52/48 54/54/48
f 57/57/49 54/54/49 55/55/49
f 58/58/50 48/48/50 49/49/50
f 59/59/51 55/55/51 58/58/51
f 59/59/52 60/60/52 57/57/52
f 60/60/53 56/56/53 57/57/53
f 56/56/54 61/61/54 53/53/54
f 53/53/55 31/31/55 62/62/55
f 32/32/56 61/61/56 63/63/56
f 63/63/57 34/34/57 32/32/57
f 60/60/58 63/63/58 61/61/58
f 2/2/59 64/64/59 3/3/59
f 4/4/60 3/3/60 64/64/60
f 4/4/61 65/65/61 6/6/61
f 8/8/62 66/66/62 2/2/62
f 9/9/63 67/67/63 8/8/63
f 11/11/64 67/67/64 9/9/64
f 68/68/65 64/64/65 66/66/65
f 68/68/66 67/67/66 69/69/66
f 69/69/67 11/11/67 14/14/67
f 70/70/68 14/14/68 16/16/68
f 69/69/69 71/71/69 68/68/69
f 68/68/70 72/72/70 65/65/70
f 65/65/71 73/73/71 6/6/71
f 73/73/72 65/65/72 72/72/72
f 74/74/73 73/73/73 72/72/73
f 75/75/74 76/76/74 74/74/74
f 77/77/75 72/72/75 71/71/75
f 78/78/76 71/71/76 70/70/76
f 79/79/77 74/74/77 77/77/77
f 80/80/78 77/77/78 78/78/78
f 27/27/79 70/70/79 16/16/79
f 28/28/80 78/78/80 27/27/80
f 28/28/81 29/29/81 80/80/81
f 29/29/82 79/79/82 80/80/82
f 79/79/83 81/81/83 75/75/83
f 75/75/84 82/82/84 83/83/84
f 84/84/85 81/81/85 33/33/85
f 33/33/86 34/34/86 84/84/86
f 29/29/87 33/33/87 81/81/87
f 85/85/88 35/35/88 37/37/88
f 38/38/89 85/85/89 37/37/89
f 86/86/90 38/38/90 6/6/90
f 87/87/91 40/40/91 35/35/91
f 42/42/92 40/40/92 88/88/92
f 44/44/93 42/42/93 88/88/93
f 89/89/94 85/85/94 86/86/94
f 89/89/95 88/88/95 87/87/95
f 44/44/96 90/90/96 47/47/96
f 47/47/97 91/91/97 49/49/97
f 90/90/98 92/92/98 91/91/98
f 89/89/99 93/93/99 92/92/99
f 86/86/100 6/6/100 73/73/100
f 73/73/101 93/93/101 86/86/101
f 73/73/102 94/94/102 93/93/102
f 76/76/103 95/95/103 94/94/103
f 93/93/104 96/96/104 92/92/104
f 92/92/105 97/97/105 91/91/105
f 94/94/106 98/98/106 96/96/106
f 96/96/107 99/99/107 97/97/107
f 58/58/108 91/91/108 97/97/108
f 59/59/109 97/97/109 99/99/109
f 59/59/110 99/99/110 60/60/110
f 60/60/111 98/98/111 100/100/111
f 98/98/112 95/95/112 100/100/112
f 95/95/113 82/82/113 100/100/113
f 100/100/114 84/84/114 63/63/114
f 63/63/115 84/84/115 34/34/115
f 60/60/116 100/100/116 63/63/116
f 1/1/117 7/7/117 2/2/117
f 5/5/118 1/1/118 4/4/118
f 7/7/119 10/10/119 8/8/119
f 12/12/120 7/7/120 1/1/120
f 12/12/121 13/13/121 10/10/121
f 11/11/122 10/10/122 13/13/122
f 14/14/123 13/13/123 15/15/123
f 13/13/124 12/12/124 17/17/124
f 12/12/125 5/5/125 18/18/125
f 19/19/126 21/21/126 20/20/126
f 21/21/127 62/62/127 22/22/127
f 18/18/128 20/20/128 23/23/128
f 17/17/129 23/23/129 24/24/129
f 20/20/130 22/22/130 25/25/130
f 23/23/131 25/25/131 26/26/131
f 27/27/132 16/16/132 15/15/132
f 28/28/133 27/27/133 24/24/133
f 29/29/134 26/26/134 25/25/134
f 22/22/135 62/62/135 31/31/135
f 30/30/136 31/31/136 32/32/136
f 35/35/137 41/41/137 36/36/137
f 38/38/138 36/36/138 39/39/138
f 40/40/139 43/43/139 41/41/139
f 45/45/140 39/39/140 36/36/140
f 45/45/141 41/41/141 43/43/141
f 46/46/142 43/43/142 44/44/142
f 48/48/143 46/46/143 47/47/143
f 46/46/144 48/48/144 50/50/144
f 45/45/145 50/50/145 51/51/145
f 52/52/146 21/21/146 19/19/146
f 53/53/147 62/62/147 21/21/147
f 54/54/148 52/52/148 51/51/148
f 55/55/149 54/54/149 50/50/149
f 56/56/150 53/53/150 52/52/150
f 57/57/151 56/56/151 54/54/151
f 58/58/152 55/55/152 48/48/152
f 59/59/153 57/57/153 55/55/153
f 60/60/154 61/61/154 56/56/154
f 53/53/155 61/61/155 31/31/155
f 32/32/156 31/31/156 61/61/156
f 2/2/157 66/66/157 64/64/157
f 4/4/158 64/64/158 65/65/158
f 8/8/159 67/67/159 66/66/159
f 68/68/160 65/65/160 64/64/160
f 68/68/161 66/66/161 67/67/161
f 69/69/162 67/67/162 11/11/162
f 70/70/163 69/69/163 14/14/163
f 69/69/164 70/70/164 71/71/164
f 68/68/165 71/71/165 72/72/165
f 74/74/166 76/76/166 73/73/166
f 75/75/167 83/83/167 76/76/167
f 77/77/168 74/74/168 72/72/168
f 78/78/169 77/77/169 71/71/169
f 79/79/170 75/75/170 74/74/170
f 80/80/171 79/79/171 77/77/171
f 27/27/172 78/78/172 70/70/172
f 28/28/173 80/80/173 78/78/173
f 29/29/174 81/81/174 79/79/174
f 75/75/175 81/81/175 82/82/175
f 84/84/176 82/82/176 81/81/176
f 85/85/177 87/87/177 35/35/177
f 86/86/178 85/85/178 38/38/178
f 87/87/179 88/88/179 40/40/179
f 89/89/180 87/87/180 85/85/180
f 89/89/181 90/90/181 88/88/181
f 44/44/182 88/88/182 90/90/182
f 47/47/183 90/90/183 91/91/183
f 90/90/184 89/89/184 92/92/184
f 89/89/185 86/86/185 93/93/185
f 73/73/186 76/76/186 94/94/186
f 76/76/187 83/83/187 95/95/187
f 93/93/188 94/94/188 96/96/188
f 92/92/189 96/96/189 97/97/189
f 94/94/190 95/95/190 98/98/190
f 96/96/191 98/98/191 99/99/191
f 58/58/192 49/49/192 91/91/192
f 59/59/193 58/58/193 97/97/193
f 60/60/194 99/99/194 98/98/194
f 95/95/195 83/83/195 82/82/195
f 100/100/196 82/82/196 84/84/196
f 118/101/197 101/102/197 117/103/197
f 117/103/198 104/104/198 118/101/198
f 119/105/199 103/106/199 118/101/199
f 118/101/200 108/107/200 119/105/200
f 120/108/201 107/109/201 119/105/201
f 119/105/202 106/110/202 120/108/202
f 117/103/203 105/111/203 120/108/203
f 120/108/204 102/112/204 117/103/204
f 122/113/205 105/111/205 121/114/205
f 121/114/206 108/107/206 122/113/206
f 123/115/207 107/109/207 122/113/207
f 122/113/208 116/116/208 123/115/208
f 124/117/209 115/118/209 123/115/209
f 123/115/210 114/119/210 124/117/210
f 121/114/211 113/120/211 124/117/211
f 124/117/212 106/110/212 121/114/212
f 126/121/213 113/120/213 125/122/213
f 125/122/214 116/116/214 126/121/214
f 127/123/215 115/118/215 126/121/215
f 126/121/216 112/124/216 127/123/216
f 128/125/217 111/126/217 127/123/217
f 127/123/218 110/127/218 128/125/218
f 128/125/219 113/120/219 109/128/219
f 125/122/220 110/127/220 114/119/220
f 130/129/221 109/128/221 129/130/221
f 129/130/222 112/124/222 130/129/222
f 131/131/223 111/126/223 130/129/223
f 130/129/224 104/132/224 131/131/224
f 132/133/225 103/134/225 131/131/225
f 131/131/226 102/135/226 132/133/226
f 129/130/227 101/136/227 132/133/227
f 132/133/228 110/127/228 129/130/228
f 134/137/229 105/138/229 133/139/229
f 133/139/230 114/119/230 134/137/230
f 134/137/231 109/128/231 113/120/231
f 134/137/232 110/127/232 135/140/232
f 136/141/233 109/128/233 135/140/233
f 135/140/234 102/142/234 136/141/234
f 133/139/235 101/143/235 136/141/235
f 136/141/236 106/144/236 133/139/236
f 138/145/237 115/118/237 137/146/237
f 137/146/238 108/147/238 138/145/238
f 139/148/239 107/149/239 138/145/239
f 138/145/240 104/150/240 139/148/240
f 140/151/241 103/152/241 139/148/241
f 139/148/242 112/124/242 140/151/242
f 140/151/243 115/118/243 111/126/243
f 140/151/244 116/116/244 137/146/244
f 118/101/197 103/106/197 101/102/197
f 117/103/198 102/112/198 104/104/198
f 119/105/199 107/109/199 103/106/199
f 118/101/200 104/104/200 108/107/200
f 120/108/201 105/111/201 107/109/201
f 119/105/202 108/107/202 106/110/202
f 117/103/203 101/102/203 105/111/203
f 120/108/204 106/110/204 102/112/204
f 122/113/205 107/109/205 105/111/205
f 121/114/206 106/110/206 108/107/206
f 123/115/207 115/118/207 107/109/207
f 122/113/208 108/107/208 116/116/208
f 124/117/209 113/120/209 115/118/209
f 123/115/210 116/116/210 114/119/210
f 121/114/211 105/111/211 113/120/211
f 124/117/212 114/119/212 106/110/212
f 126/121/213 115/118/213 113/120/213
f 125/122/214 114/119/214 116/116/214
f 127/123/215 111/126/215 115/118/215
f 126/121/216 116/116/216 112/124/216
f 128/125/217 109/128/217 111/126/217
f 127/123/218 112/124/218 110/127/218
f 128/125/219 125/122/219 113/120/219
f 125/122/220 128/125/220 110/127/220
f 130/129/221 111/126/221 109/128/221
f 129/130/222 110/127/222 112/124/222
f 131/131/223 103/134/223 111/126/223
f 130/129/224 112/124/224 104/132/224
f 132/133/225 101/136/225 103/134/225
f 131/131/226 104/132/226 102/135/226
f 129/130/227 109/128/227 101/136/227
f 132/133/228 102/135/228 110/127/228
f 134/137/229 113/120/229 105/138/229
f 133/139/230 106/144/230 114/119/230
f 134/137/231 135/140/231 109/128/231
f 134/137/232 114/119/232 110/127/232
f 136/141/233 101/143/233 109/128/233
f 135/140/234 110/127/234 102/142/234
f 133/139/235 105/138/235 101/143/235
f 136/141/236 102/142/236 106/144/236
f 138/145/237 107/149/237 115/118/237
f 137/146/238 116/116/238 108/147/238
f 139/148/239 103/152/239 107/149/239
f 138/145/240 108/147/240 104/150/240
f 140/151/241 111/126/241 103/152/241
f 139/148/242 104/150/242 112/124/242
f 140/151/243 137/146/243 115/118/243
f 140/151/244 112/124/244 116/116/244
