# Blender v2.82 (sub 7) OBJ File: 'CG_Test.blend'
# www.blender.org
mtllib Sternenteil.mtl
o R3_Objekttrigger1_Cube_Cube.003
v 0.000000 -0.134067 0.175934
v -0.118255 0.000000 0.000579
v 0.000000 0.000000 -0.353025
v 0.118255 0.000000 0.000579
v 0.000000 0.134067 0.175934
vt 0.000000 0.000000
vt 0.000000 0.000000
vt 0.000000 0.000000
vt 0.000000 0.000000
vt 0.000000 0.000000
vn -0.5921 -0.7812 -0.1980
vn 0.5921 -0.7812 -0.1980
vn 0.5921 0.7812 -0.1980
vn -0.5921 0.7812 -0.1980
vn 0.0000 0.0000 1.0000
vn 0.0000 0.7944 0.6074
vn 0.0000 -0.7944 0.6074
usemtl None.005
s 1
f 1/1/1 2/2/1 3/3/1
f 1/1/2 3/3/2 4/4/2
f 4/4/3 3/3/3 5/5/3
f 5/5/4 3/3/4 2/2/4
f 2/2/5 1/1/6 4/4/5
f 4/4/5 5/5/7 2/2/5
