# Blender v2.82 (sub 7) OBJ File: 'CG_Test.blend'
# www.blender.org
mtllib R2_Farbobjekt3.mtl
o R2_Farbobjekt3_Torus.001
v -72.940704 1.168949 -38.407219
v -73.091896 1.168949 -38.348976
v -73.231705 1.168949 -38.430878
v -73.254845 1.168949 -38.591240
v -73.143890 1.168949 -38.709316
v -72.982399 1.168949 -38.696190
v -72.891968 1.168949 -38.561741
v -73.621040 2.102527 -39.046524
v -73.721008 2.032227 -38.940140
v -73.745697 1.874264 -38.913864
v -73.676521 1.747587 -38.987484
v -73.565567 1.747587 -39.105560
v -73.496384 1.874264 -39.179176
v -73.521080 2.032227 -39.152905
v -74.301384 1.168949 -39.685822
v -74.350121 1.168949 -39.531300
v -74.259689 1.168949 -39.396851
v -74.098198 1.168949 -39.383724
v -73.987244 1.168949 -39.501801
v -74.010376 1.168949 -39.662163
v -74.150192 1.168949 -39.744064
v -73.621040 0.235372 -39.046524
v -73.721008 0.305672 -38.940140
v -73.745697 0.463635 -38.913864
v -73.676521 0.590312 -38.987484
v -73.565567 0.590312 -39.105560
v -73.496384 0.463635 -39.179176
v -73.521080 0.305672 -39.152905
vt 0.750000 0.571429
vt 0.500000 0.714286
vt 0.500000 0.571429
vt 0.750000 0.714286
vt 0.500000 0.857143
vt 0.750000 0.857143
vt 0.500000 1.000000
vt 0.750000 -0.000000
vt 0.500000 0.142857
vt 0.500000 -0.000000
vt 0.750000 0.142857
vt 0.500000 0.285714
vt 0.750000 0.428571
vt 0.500000 0.428571
vt 1.000000 0.571429
vt 1.000000 0.714286
vt 1.000000 0.857143
vt 0.750000 1.000000
vt 1.000000 -0.000000
vt 1.000000 0.142857
vt 0.750000 0.285714
vt 1.000000 0.285714
vt 0.000000 0.571429
vt 0.250000 0.714286
vt 0.000000 0.714286
vt 0.250000 0.857143
vt 0.000000 0.857143
vt 0.250000 1.000000
vt 0.000000 1.000000
vt 0.250000 -0.000000
vt 0.000000 0.142857
vt 0.000000 -0.000000
vt 0.250000 0.285714
vt 0.000000 0.285714
vt 0.000000 0.428571
vt 0.250000 0.428571
vt 0.250000 0.571429
vt 0.250000 0.142857
vt 1.000000 1.000000
vt 1.000000 0.428571
vn 0.2671 0.6694 0.6933
vn -0.4934 0.2173 0.8422
vn -0.8399 -0.5291 0.1212
vn -0.5153 -0.7071 -0.4842
vn 0.0687 -0.5291 -0.8458
vn 0.8100 0.2172 -0.5448
vn 0.7085 0.6694 0.2235
vn -0.7085 0.6694 -0.2235
vn -0.8100 0.2172 0.5448
vn -0.0687 -0.5291 0.8458
vn 0.5153 -0.7071 0.4842
vn 0.8399 -0.5291 -0.1211
vn 0.4934 0.2172 -0.8423
vn -0.2671 0.6694 -0.6933
vn -0.7085 -0.6694 -0.2235
vn -0.8100 -0.2171 0.5448
vn -0.0688 0.5291 0.8458
vn 0.5153 0.7071 0.4842
vn 0.8399 0.5291 -0.1212
vn 0.4934 -0.2172 -0.8423
vn -0.2671 -0.6694 -0.6933
vn 0.2671 -0.6693 0.6933
vn -0.4934 -0.2172 0.8422
vn -0.8399 0.5291 0.1212
vn -0.5153 0.7071 -0.4842
vn 0.0688 0.5290 -0.8458
vn 0.8100 -0.2173 -0.5447
vn 0.7086 -0.6693 0.2234
vn 0.2671 0.6693 0.6933
vn -0.4934 0.2171 0.8423
vn 0.0688 -0.5291 -0.8458
vn 0.8100 0.2172 -0.5447
vn 0.7086 0.6693 0.2234
vn -0.8100 0.2171 0.5448
vn 0.8399 -0.5291 -0.1212
vn -0.8100 -0.2172 0.5447
vn -0.0687 0.5291 0.8458
vn 0.8399 0.5291 -0.1211
vn 0.4935 -0.2172 -0.8422
vn 0.2671 -0.6694 0.6933
vn -0.4934 -0.2172 0.8423
vn 0.0687 0.5291 -0.8458
vn 0.8100 -0.2172 -0.5448
vn 0.7085 -0.6694 0.2235
usemtl None
s off
f 8/1/1 2/2/1 1/3/1
f 9/4/2 3/5/2 2/2/2
f 10/6/3 4/7/3 3/5/3
f 11/8/4 5/9/4 4/10/4
f 12/11/5 6/12/5 5/9/5
f 6/12/6 14/13/6 7/14/6
f 7/14/7 8/1/7 1/3/7
f 15/15/8 9/4/8 8/1/8
f 16/16/9 10/6/9 9/4/9
f 17/17/10 11/18/10 10/6/10
f 18/19/11 12/11/11 11/8/11
f 19/20/12 13/21/12 12/11/12
f 20/22/13 14/13/13 13/21/13
f 14/13/14 15/15/14 8/1/14
f 15/23/15 23/24/15 16/25/15
f 16/25/16 24/26/16 17/27/16
f 17/27/17 25/28/17 18/29/17
f 25/30/18 19/31/18 18/32/18
f 19/31/19 27/33/19 20/34/19
f 27/33/20 21/35/20 20/34/20
f 28/36/21 15/23/21 21/35/21
f 22/37/22 2/2/22 23/24/22
f 2/2/23 24/26/23 23/24/23
f 24/26/24 4/7/24 25/28/24
f 4/10/25 26/38/25 25/30/25
f 5/9/26 27/33/26 26/38/26
f 27/33/27 7/14/27 28/36/27
f 7/14/28 22/37/28 28/36/28
f 8/1/29 9/4/29 2/2/29
f 9/4/30 10/6/30 3/5/30
f 10/6/3 11/18/3 4/7/3
f 11/8/4 12/11/4 5/9/4
f 12/11/31 13/21/31 6/12/31
f 6/12/32 13/21/32 14/13/32
f 7/14/33 14/13/33 8/1/33
f 15/15/8 16/16/8 9/4/8
f 16/16/34 17/17/34 10/6/34
f 17/17/10 18/39/10 11/18/10
f 18/19/11 19/20/11 12/11/11
f 19/20/35 20/22/35 13/21/35
f 20/22/13 21/40/13 14/13/13
f 14/13/14 21/40/14 15/15/14
f 15/23/15 22/37/15 23/24/15
f 16/25/36 23/24/36 24/26/36
f 17/27/37 24/26/37 25/28/37
f 25/30/18 26/38/18 19/31/18
f 19/31/38 26/38/38 27/33/38
f 27/33/39 28/36/39 21/35/39
f 28/36/21 22/37/21 15/23/21
f 22/37/40 1/3/40 2/2/40
f 2/2/41 3/5/41 24/26/41
f 24/26/24 3/5/24 4/7/24
f 4/10/25 5/9/25 26/38/25
f 5/9/42 6/12/42 27/33/42
f 27/33/43 6/12/43 7/14/43
f 7/14/44 1/3/44 22/37/44
