# Blender v2.82 (sub 7) OBJ File: 'CG_Test.blend'
# www.blender.org
mtllib R2_Vorgabe3_Blau.mtl
o R2_Vorgabe3_Blau_Torus
v -69.954491 1.168950 -29.771000
v -70.016838 1.168950 -29.621450
v -70.172638 1.168950 -29.576960
v -70.304565 1.168950 -29.671028
v -70.313271 1.168950 -29.832821
v -70.192207 1.168950 -29.940504
v -70.032532 1.168950 -29.912989
v -70.886719 2.102527 -29.720835
v -70.878868 2.032227 -29.575064
v -70.876938 1.874264 -29.539061
v -70.882362 1.747587 -29.639936
v -70.891068 1.747587 -29.801729
v -70.896500 1.874264 -29.902605
v -70.894562 2.032227 -29.866602
v -71.818947 1.168950 -29.670670
v -71.740898 1.168950 -29.528677
v -71.581223 1.168950 -29.501162
v -71.460167 1.168950 -29.608845
v -71.468872 1.168950 -29.770638
v -71.600792 1.168950 -29.864706
v -71.756592 1.168950 -29.820215
v -70.886719 0.235372 -29.720835
v -70.878868 0.305673 -29.575064
v -70.876938 0.463636 -29.539061
v -70.882362 0.590313 -29.639936
v -70.891068 0.590313 -29.801729
v -70.896500 0.463636 -29.902605
v -70.894562 0.305673 -29.866602
vt 0.750000 0.571429
vt 0.500000 0.714286
vt 0.500000 0.571429
vt 0.750000 0.714286
vt 0.500000 0.857143
vt 0.750000 0.857143
vt 0.500000 1.000000
vt 0.750000 -0.000000
vt 0.500000 0.142857
vt 0.500000 -0.000000
vt 0.750000 0.142857
vt 0.500000 0.285714
vt 0.750000 0.428571
vt 0.500000 0.428571
vt 1.000000 0.571429
vt 1.000000 0.857143
vt 0.750000 1.000000
vt 1.000000 -0.000000
vt 1.000000 0.285714
vt 0.750000 0.285714
vt 0.000000 0.571429
vt 0.250000 0.714286
vt 0.000000 0.714286
vt 0.250000 0.857143
vt 0.000000 0.857143
vt 0.000000 1.000000
vt 0.250000 -0.000000
vt 0.000000 0.142857
vt 0.000000 -0.000000
vt 0.250000 0.142857
vt 0.000000 0.285714
vt 0.250000 0.285714
vt 0.000000 0.428571
vt 0.250000 0.428571
vt 0.250000 0.571429
vt 0.250000 1.000000
vt 1.000000 0.714286
vt 1.000000 1.000000
vt 1.000000 0.142857
vt 1.000000 0.428571
vn 0.6857 0.6694 0.2859
vn 0.2680 0.2172 0.9386
vn -0.4927 -0.5291 0.6909
vn -0.7061 -0.7071 0.0380
vn -0.5640 -0.5291 -0.6340
vn 0.1658 0.2172 -0.9619
vn 0.6511 0.6694 -0.3579
vn -0.6511 0.6694 0.3579
vn -0.1658 0.2172 0.9619
vn 0.5640 -0.5291 0.6341
vn 0.7061 -0.7071 -0.0380
vn 0.4927 -0.5291 -0.6909
vn -0.2680 0.2172 -0.9386
vn -0.6857 0.6693 -0.2859
vn -0.6511 -0.6694 0.3579
vn -0.1658 -0.2172 0.9619
vn 0.5640 0.5291 0.6340
vn 0.7061 0.7071 -0.0380
vn 0.4927 0.5291 -0.6909
vn -0.2680 -0.2172 -0.9386
vn -0.6857 -0.6694 -0.2859
vn 0.6857 -0.6694 0.2859
vn 0.2680 -0.2172 0.9386
vn -0.4927 0.5291 0.6909
vn -0.7061 0.7071 0.0380
vn -0.5640 0.5291 -0.6340
vn 0.1658 -0.2172 -0.9619
vn 0.6511 -0.6694 -0.3578
vn 0.1657 0.2172 -0.9619
vn 0.6511 0.6694 -0.3578
vn 0.5640 -0.5291 0.6340
vn -0.6857 0.6694 -0.2859
vn 0.5640 0.5291 0.6341
vn -0.2681 -0.2172 -0.9386
vn -0.6857 -0.6693 -0.2859
vn 0.6511 -0.6694 -0.3579
usemtl None
s off
f 8/1/1 2/2/1 1/3/1
f 9/4/2 3/5/2 2/2/2
f 10/6/3 4/7/3 3/5/3
f 11/8/4 5/9/4 4/10/4
f 12/11/5 6/12/5 5/9/5
f 6/12/6 14/13/6 7/14/6
f 14/13/7 1/3/7 7/14/7
f 15/15/8 9/4/8 8/1/8
f 9/4/9 17/16/9 10/6/9
f 17/16/10 11/17/10 10/6/10
f 18/18/11 12/11/11 11/8/11
f 12/11/12 20/19/12 13/20/12
f 20/19/13 14/13/13 13/20/13
f 14/13/14 15/15/14 8/1/14
f 15/21/15 23/22/15 16/23/15
f 16/23/16 24/24/16 17/25/16
f 24/24/17 18/26/17 17/25/17
f 25/27/18 19/28/18 18/29/18
f 26/30/19 20/31/19 19/28/19
f 27/32/20 21/33/20 20/31/20
f 28/34/21 15/21/21 21/33/21
f 22/35/22 2/2/22 23/22/22
f 2/2/23 24/24/23 23/22/23
f 3/5/24 25/36/24 24/24/24
f 4/10/25 26/30/25 25/27/25
f 26/30/26 6/12/26 27/32/26
f 6/12/27 28/34/27 27/32/27
f 7/14/28 22/35/28 28/34/28
f 8/1/1 9/4/1 2/2/1
f 9/4/2 10/6/2 3/5/2
f 10/6/3 11/17/3 4/7/3
f 11/8/4 12/11/4 5/9/4
f 12/11/5 13/20/5 6/12/5
f 6/12/29 13/20/29 14/13/29
f 14/13/30 8/1/30 1/3/30
f 15/15/8 16/37/8 9/4/8
f 9/4/9 16/37/9 17/16/9
f 17/16/31 18/38/31 11/17/31
f 18/18/11 19/39/11 12/11/11
f 12/11/12 19/39/12 20/19/12
f 20/19/13 21/40/13 14/13/13
f 14/13/32 21/40/32 15/15/32
f 15/21/15 22/35/15 23/22/15
f 16/23/16 23/22/16 24/24/16
f 24/24/33 25/36/33 18/26/33
f 25/27/18 26/30/18 19/28/18
f 26/30/19 27/32/19 20/31/19
f 27/32/34 28/34/34 21/33/34
f 28/34/35 22/35/35 15/21/35
f 22/35/22 1/3/22 2/2/22
f 2/2/23 3/5/23 24/24/23
f 3/5/24 4/7/24 25/36/24
f 4/10/25 5/9/25 26/30/25
f 26/30/26 5/9/26 6/12/26
f 6/12/27 7/14/27 28/34/27
f 7/14/36 1/3/36 22/35/36
