# Blender v2.82 (sub 7) OBJ File: ''
# www.blender.org
mtllib herz.mtl
o Cube_Cube.002
v 0.142232 0.847891 0.108464
v 0.176754 0.915075 0.000000
v 0.120089 0.888975 0.000000
v 0.074358 0.852339 0.000000
v 0.073797 0.773484 0.168697
v 0.000000 0.753966 0.000000
v 0.229857 0.843443 0.111023
v 0.248087 0.916054 0.000000
v 0.350352 0.879652 0.000000
v 0.317483 0.838995 0.095747
v 0.405108 0.834547 0.000000
v 0.225382 0.770797 0.158525
v 0.338073 0.768111 0.118379
v 0.450764 0.765425 0.000000
v 0.354078 0.681009 0.124349
v 0.472104 0.681009 0.000000
v 0.236052 0.681009 0.175448
v 0.118026 0.681009 0.185584
v 0.000000 0.681009 0.188464
v 0.115018 0.585512 0.187633
v 0.000000 0.585512 0.190254
v 0.101235 0.457023 0.184784
v 0.230037 0.585512 0.166684
v 0.345055 0.585512 0.121075
v 0.202471 0.457023 0.163987
v 0.303706 0.457023 0.089526
v 0.460073 0.585512 0.000000
v 0.404941 0.457023 -0.000000
v 0.249668 0.285958 -0.000000
v 0.124834 0.285958 0.084687
v 0.000000 0.285958 0.123862
v 0.000000 0.138150 0.031521
v 0.080769 0.138150 -0.000000
v 0.000000 0.065780 -0.000000
v -0.176754 0.915075 0.000000
v -0.142232 0.847891 0.108464
v -0.120089 0.888975 0.000000
v -0.074358 0.852339 0.000000
v -0.073797 0.773484 0.168697
v -0.248087 0.916054 0.000000
v -0.229857 0.843443 0.111023
v -0.350352 0.879652 0.000000
v -0.317483 0.838995 0.095747
v -0.405108 0.834547 0.000000
v -0.225382 0.770797 0.158525
v -0.338073 0.768111 0.118379
v -0.450764 0.765425 0.000000
v -0.354078 0.681009 0.124349
v -0.472104 0.681009 0.000000
v -0.236052 0.681009 0.175448
v -0.118026 0.681009 0.185584
v -0.115018 0.585512 0.187633
v -0.101235 0.457023 0.184784
v -0.230037 0.585512 0.166684
v -0.345055 0.585512 0.121075
v -0.202471 0.457023 0.163987
v -0.303706 0.457023 0.089526
v -0.460073 0.585512 0.000000
v -0.404941 0.457023 -0.000000
v -0.249668 0.285958 -0.000000
v -0.124834 0.285958 0.084687
v 0.000000 0.457023 0.186959
v -0.080769 0.138150 -0.000000
v 0.142232 0.847891 -0.108464
v 0.073797 0.773484 -0.168697
v 0.229857 0.843443 -0.111023
v 0.317483 0.838995 -0.095747
v 0.225382 0.770797 -0.158525
v 0.338073 0.768111 -0.118379
v 0.354078 0.681009 -0.124349
v 0.236052 0.681009 -0.175448
v 0.118026 0.681009 -0.185584
v 0.000000 0.681009 -0.188464
v 0.115018 0.585512 -0.187633
v 0.101235 0.457023 -0.184784
v 0.000000 0.585512 -0.190254
v 0.230037 0.585512 -0.166684
v 0.345055 0.585512 -0.121075
v 0.202471 0.457023 -0.163987
v 0.303706 0.457023 -0.089526
v 0.124834 0.285958 -0.084687
v 0.000000 0.285958 -0.123862
v 0.000000 0.457023 -0.186959
v 0.000000 0.138150 -0.031521
v -0.142232 0.847891 -0.108464
v -0.073797 0.773484 -0.168697
v -0.229857 0.843443 -0.111023
v -0.317483 0.838995 -0.095747
v -0.225382 0.770797 -0.158525
v -0.338073 0.768111 -0.118379
v -0.354078 0.681009 -0.124349
v -0.236052 0.681009 -0.175448
v -0.118026 0.681009 -0.185584
v -0.115018 0.585512 -0.187633
v -0.101235 0.457023 -0.184784
v -0.230037 0.585512 -0.166684
v -0.345055 0.585512 -0.121075
v -0.202471 0.457023 -0.163987
v -0.303706 0.457023 -0.089526
v -0.124834 0.285958 -0.084687
vt 0.000000 0.000000
vt 0.000000 0.000000
vt 0.000000 0.000000
vt 0.000000 0.000000
vt 0.000000 0.000000
vt 0.000000 0.000000
vt 0.000000 0.000000
vt 0.000000 0.000000
vt 0.000000 0.000000
vt 0.000000 0.000000
vt 0.000000 0.000000
vt 0.000000 0.000000
vt 0.000000 0.000000
vt 0.000000 0.000000
vt 0.000000 0.000000
vt 0.000000 0.000000
vt 0.000000 0.000000
vt 0.000000 0.000000
vt 0.000000 0.000000
vt 0.000000 0.000000
vt 0.000000 0.000000
vt 0.000000 0.000000
vt 0.000000 0.000000
vt 0.000000 0.000000
vt 0.000000 0.000000
vt 0.000000 0.000000
vt 0.000000 0.000000
vt 0.000000 0.000000
vt 0.000000 0.000000
vt 0.000000 0.000000
vt 0.000000 0.000000
vt 0.000000 0.000000
vt 0.000000 0.000000
vt 0.000000 0.000000
vt 0.000000 0.000000
vt 0.000000 0.000000
vt 0.000000 0.000000
vt 0.000000 0.000000
vt 0.000000 0.000000
vt 0.000000 0.000000
vt 0.000000 0.000000
vt 0.000000 0.000000
vt 0.000000 0.000000
vt 0.000000 0.000000
vt 0.000000 0.000000
vt 0.000000 0.000000
vt 0.000000 0.000000
vt 0.000000 0.000000
vt 0.000000 0.000000
vt 0.000000 0.000000
vt 0.000000 0.000000
vt 0.000000 0.000000
vt 0.000000 0.000000
vt 0.000000 0.000000
vt 0.000000 0.000000
vt 0.000000 0.000000
vt 0.000000 0.000000
vt 0.000000 0.000000
vt 0.000000 0.000000
vt 0.000000 0.000000
vt 0.000000 0.000000
vt 0.000000 0.000000
vt 0.000000 0.000000
vt 0.000000 0.000000
vt 0.000000 0.000000
vt 0.000000 0.000000
vt 0.000000 0.000000
vt 0.000000 0.000000
vt 0.000000 0.000000
vt 0.000000 0.000000
vt 0.000000 0.000000
vt 0.000000 0.000000
vt 0.000000 0.000000
vt 0.000000 0.000000
vt 0.000000 0.000000
vt 0.000000 0.000000
vt 0.000000 0.000000
vt 0.000000 0.000000
vt 0.000000 0.000000
vt 0.000000 0.000000
vt 0.000000 0.000000
vt 0.000000 0.000000
vt 0.000000 0.000000
vt 0.000000 0.000000
vt 0.000000 0.000000
vt 0.000000 0.000000
vt 0.000000 0.000000
vt 0.000000 0.000000
vt 0.000000 0.000000
vt 0.000000 0.000000
vt 0.000000 0.000000
vt 0.000000 0.000000
vt 0.000000 0.000000
vt 0.000000 0.000000
vt 0.000000 0.000000
vt 0.000000 0.000000
vt 0.000000 0.000000
vt 0.000000 0.000000
vt 0.000000 0.000000
vt 0.000000 0.000000
vn -0.0836 0.8588 0.5054
vn -0.2376 0.8578 0.4557
vn -0.3844 0.8346 0.3946
vn -0.5758 0.7187 0.3898
vn -0.6484 0.6905 0.3206
vn -0.6897 0.6569 0.3047
vn -0.7684 0.5808 0.2689
vn 0.0966 0.8256 0.5559
vn 0.0360 0.8336 0.5511
vn -0.0115 0.8377 0.5460
vn 0.2981 0.8375 0.4580
vn 0.5580 0.6774 0.4792
vn 0.0352 0.5707 0.8204
vn 0.0422 0.5758 0.8165
vn 0.0644 0.5914 0.8038
vn 0.2403 0.4616 0.8539
vn 0.2631 0.4366 0.8603
vn 0.1716 0.5317 0.8294
vn 0.6655 0.4236 0.6146
vn 0.6771 0.4080 0.6124
vn 0.6574 0.4342 0.6159
vn 0.7138 0.1796 0.6769
vn 0.7144 0.1785 0.6766
vn 0.7134 0.1803 0.6771
vn 0.3702 0.1653 0.9141
vn 0.3575 0.1815 0.9161
vn 0.3937 0.1347 0.9093
vn 0.0777 0.2014 0.9764
vn 0.0743 0.2052 0.9759
vn 0.0839 0.1942 0.9774
vn -0.7312 0.6362 0.2463
vn 0.0239 0.1907 0.9814
vn 0.0235 0.0196 0.9995
vn 0.0237 0.0198 0.9995
vn 0.0244 0.0207 0.9995
vn 0.0222 -0.0250 0.9994
vn 0.0221 -0.0252 0.9994
vn 0.0228 -0.0246 0.9994
vn 0.1385 -0.0335 0.9898
vn 0.1260 -0.0483 0.9909
vn 0.0852 -0.0964 0.9917
vn 0.3791 -0.0916 0.9208
vn 0.3843 -0.0847 0.9193
vn 0.3964 -0.0688 0.9155
vn 0.1883 -0.0523 0.9807
vn 0.1909 -0.0505 0.9803
vn 0.1789 -0.0590 0.9821
vn 0.4655 -0.2440 0.8508
vn 0.4786 -0.2338 0.8463
vn 0.3483 -0.3277 0.8782
vn 0.7222 -0.0912 0.6857
vn 0.7221 -0.0915 0.6857
vn 0.7220 -0.0917 0.6858
vn 0.6592 -0.3297 0.6759
vn 0.6550 -0.3336 0.6780
vn 0.6157 -0.3691 0.6962
vn 0.5677 -0.5153 0.6420
vn 0.4849 -0.5318 0.6943
vn 0.4928 -0.5275 0.6921
vn 0.4732 -0.5381 0.6975
vn 0.1767 -0.4788 0.8600
vn 0.1144 -0.3927 0.9125
vn 0.1938 -0.4289 0.8823
vn 0.2660 -0.4592 0.8476
vn 0.2720 -0.5208 0.8092
vn 0.2868 -0.5294 0.7984
vn 0.3059 -0.5403 0.7839
vn 0.3369 -0.3760 0.8632
vn 0.4725 -0.5400 0.6965
vn 0.2376 0.8578 0.4557
vn 0.0836 0.8588 0.5054
vn 0.3844 0.8346 0.3946
vn 0.5758 0.7187 0.3898
vn 0.6897 0.6569 0.3047
vn 0.6484 0.6905 0.3206
vn 0.7684 0.5808 0.2689
vn -0.0360 0.8336 0.5511
vn -0.0966 0.8256 0.5559
vn 0.0115 0.8377 0.5460
vn -0.2981 0.8375 0.4580
vn -0.5580 0.6774 0.4792
vn -0.0352 0.5707 0.8204
vn -0.0422 0.5758 0.8165
vn -0.0033 0.5471 0.8370
vn -0.2403 0.4616 0.8539
vn -0.2631 0.4366 0.8603
vn -0.3195 0.3712 0.8719
vn -0.6771 0.4080 0.6124
vn -0.6655 0.4236 0.6146
vn -0.6574 0.4342 0.6159
vn -0.7144 0.1785 0.6766
vn -0.7138 0.1796 0.6769
vn -0.7134 0.1803 0.6771
vn -0.3702 0.1653 0.9141
vn -0.3575 0.1815 0.9161
vn -0.3324 0.2127 0.9188
vn -0.0777 0.2014 0.9764
vn -0.0743 0.2052 0.9759
vn -0.0692 0.2111 0.9750
vn 0.7312 0.6362 0.2463
vn -0.0239 0.1907 0.9814
vn -0.0237 0.0198 0.9995
vn -0.0235 0.0196 0.9995
vn -0.0244 0.0207 0.9995
vn -0.0221 -0.0252 0.9994
vn -0.0222 -0.0250 0.9994
vn -0.0228 -0.0246 0.9994
vn -0.1260 -0.0483 0.9909
vn -0.1385 -0.0335 0.9898
vn -0.0852 -0.0964 0.9917
vn -0.3843 -0.0847 0.9193
vn -0.3791 -0.0916 0.9208
vn -0.3964 -0.0688 0.9155
vn -0.1909 -0.0505 0.9803
vn -0.1883 -0.0523 0.9807
vn -0.1789 -0.0590 0.9821
vn -0.4786 -0.2338 0.8463
vn -0.4655 -0.2440 0.8508
vn -0.3483 -0.3277 0.8782
vn -0.7222 -0.0912 0.6857
vn -0.7221 -0.0915 0.6857
vn -0.7223 -0.0910 0.6856
vn -0.6592 -0.3297 0.6759
vn -0.6550 -0.3336 0.6780
vn -0.6923 -0.2970 0.6577
vn -0.5677 -0.5153 0.6420
vn -0.4849 -0.5318 0.6943
vn -0.4928 -0.5275 0.6921
vn -0.5061 -0.5200 0.6881
vn -0.1767 -0.4788 0.8600
vn -0.1144 -0.3927 0.9125
vn -0.1938 -0.4289 0.8823
vn -0.0202 -0.3460 0.9380
vn -0.2868 -0.5294 0.7984
vn -0.2720 -0.5208 0.8092
vn -0.3059 -0.5403 0.7839
vn -0.3369 -0.3760 0.8632
vn -0.4725 -0.5400 0.6965
vn -0.2376 0.8578 -0.4557
vn -0.0836 0.8588 -0.5054
vn -0.3844 0.8346 -0.3946
vn -0.5758 0.7187 -0.3898
vn -0.6897 0.6569 -0.3047
vn -0.6484 0.6905 -0.3206
vn -0.7684 0.5808 -0.2689
vn 0.0360 0.8336 -0.5511
vn 0.0966 0.8257 -0.5559
vn -0.0115 0.8377 -0.5460
vn 0.2981 0.8375 -0.4580
vn 0.5580 0.6774 -0.4792
vn 0.0352 0.5707 -0.8204
vn 0.0422 0.5758 -0.8165
vn 0.0033 0.5471 -0.8370
vn 0.2403 0.4616 -0.8539
vn 0.2631 0.4366 -0.8603
vn 0.3195 0.3712 -0.8719
vn 0.6771 0.4080 -0.6124
vn 0.6655 0.4236 -0.6146
vn 0.6574 0.4342 -0.6159
vn 0.7144 0.1785 -0.6766
vn 0.7138 0.1796 -0.6769
vn 0.7134 0.1803 -0.6771
vn 0.3702 0.1653 -0.9141
vn 0.3575 0.1815 -0.9161
vn 0.3324 0.2127 -0.9188
vn 0.0777 0.2014 -0.9764
vn 0.0743 0.2052 -0.9759
vn 0.0692 0.2111 -0.9750
vn -0.7312 0.6362 -0.2463
vn 0.0239 0.1907 -0.9814
vn 0.0237 0.0198 -0.9995
vn 0.0235 0.0196 -0.9995
vn 0.0244 0.0207 -0.9995
vn 0.0221 -0.0252 -0.9994
vn 0.0222 -0.0250 -0.9994
vn 0.0228 -0.0246 -0.9994
vn 0.1260 -0.0483 -0.9909
vn 0.1385 -0.0335 -0.9898
vn 0.0852 -0.0964 -0.9917
vn 0.3843 -0.0847 -0.9193
vn 0.3791 -0.0916 -0.9208
vn 0.3964 -0.0688 -0.9155
vn 0.1909 -0.0505 -0.9803
vn 0.1883 -0.0523 -0.9807
vn 0.1789 -0.0590 -0.9821
vn 0.4786 -0.2338 -0.8463
vn 0.4655 -0.2440 -0.8508
vn 0.3483 -0.3277 -0.8782
vn 0.7222 -0.0912 -0.6857
vn 0.7221 -0.0915 -0.6857
vn 0.7223 -0.0910 -0.6856
vn 0.6592 -0.3297 -0.6759
vn 0.6550 -0.3336 -0.6780
vn 0.6923 -0.2970 -0.6577
vn 0.5677 -0.5153 -0.6420
vn 0.4849 -0.5318 -0.6943
vn 0.4928 -0.5275 -0.6921
vn 0.5061 -0.5200 -0.6881
vn 0.1767 -0.4788 -0.8600
vn 0.1144 -0.3927 -0.9125
vn 0.1938 -0.4289 -0.8823
vn 0.0202 -0.3460 -0.9380
vn 0.2868 -0.5294 -0.7984
vn 0.2720 -0.5208 -0.8092
vn 0.3059 -0.5403 -0.7839
vn 0.3369 -0.3760 -0.8632
vn 0.4725 -0.5400 -0.6965
vn 0.0836 0.8588 -0.5054
vn 0.2376 0.8578 -0.4557
vn 0.3844 0.8346 -0.3946
vn 0.5758 0.7187 -0.3898
vn 0.6484 0.6905 -0.3206
vn 0.6897 0.6569 -0.3047
vn 0.7684 0.5808 -0.2689
vn -0.0966 0.8257 -0.5559
vn -0.0360 0.8336 -0.5511
vn 0.0115 0.8377 -0.5460
vn -0.2981 0.8375 -0.4580
vn -0.5580 0.6774 -0.4792
vn -0.0352 0.5707 -0.8204
vn -0.0422 0.5758 -0.8165
vn -0.0644 0.5914 -0.8038
vn -0.2403 0.4616 -0.8539
vn -0.2631 0.4366 -0.8603
vn -0.1716 0.5317 -0.8294
vn -0.6655 0.4236 -0.6146
vn -0.6771 0.4080 -0.6124
vn -0.6574 0.4342 -0.6159
vn -0.7138 0.1796 -0.6769
vn -0.7144 0.1785 -0.6766
vn -0.7134 0.1803 -0.6771
vn -0.3702 0.1653 -0.9141
vn -0.3575 0.1815 -0.9161
vn -0.3937 0.1347 -0.9093
vn -0.0777 0.2014 -0.9764
vn -0.0743 0.2052 -0.9759
vn -0.0839 0.1942 -0.9774
vn 0.7312 0.6362 -0.2463
vn -0.0239 0.1907 -0.9814
vn -0.0235 0.0196 -0.9995
vn -0.0237 0.0198 -0.9995
vn -0.0244 0.0207 -0.9995
vn -0.0222 -0.0250 -0.9994
vn -0.0221 -0.0252 -0.9994
vn -0.0228 -0.0246 -0.9994
vn -0.1385 -0.0335 -0.9898
vn -0.1260 -0.0483 -0.9909
vn -0.0852 -0.0964 -0.9917
vn -0.3791 -0.0916 -0.9208
vn -0.3843 -0.0847 -0.9193
vn -0.3964 -0.0688 -0.9155
vn -0.1883 -0.0523 -0.9807
vn -0.1909 -0.0505 -0.9803
vn -0.1789 -0.0590 -0.9821
vn -0.4655 -0.2440 -0.8508
vn -0.4786 -0.2338 -0.8463
vn -0.3483 -0.3277 -0.8782
vn -0.7222 -0.0912 -0.6857
vn -0.7221 -0.0915 -0.6857
vn -0.7220 -0.0917 -0.6858
vn -0.6592 -0.3297 -0.6759
vn -0.6550 -0.3336 -0.6780
vn -0.6157 -0.3691 -0.6962
vn -0.5677 -0.5153 -0.6420
vn -0.4849 -0.5318 -0.6943
vn -0.4928 -0.5275 -0.6921
vn -0.4732 -0.5381 -0.6975
vn -0.1767 -0.4788 -0.8600
vn -0.1144 -0.3927 -0.9125
vn -0.1938 -0.4289 -0.8823
vn -0.2660 -0.4592 -0.8476
vn -0.2720 -0.5208 -0.8092
vn -0.2868 -0.5294 -0.7984
vn -0.3059 -0.5403 -0.7839
vn -0.3369 -0.3760 -0.8632
vn -0.4725 -0.5400 -0.6965
vn 0.0274 0.8459 0.5327
vn -0.5236 0.7725 0.3593
vn 0.1388 0.8182 0.5579
vn 0.0033 0.5471 0.8370
vn 0.3195 0.3712 0.8719
vn 0.6870 0.3944 0.6104
vn 0.7148 0.1777 0.6764
vn 0.3324 0.2127 0.9188
vn 0.0692 0.2111 0.9750
vn 0.0228 0.0187 0.9996
vn 0.0215 -0.0256 0.9994
vn 0.1792 0.0155 0.9837
vn 0.3665 -0.1079 0.9242
vn 0.2010 -0.0433 0.9786
vn 0.5865 -0.1426 0.7973
vn 0.7223 -0.0910 0.6856
vn 0.6923 -0.2970 0.6577
vn 0.5061 -0.5200 0.6881
vn 0.0202 -0.3460 0.9380
vn 0.2572 -0.5120 0.8196
vn -0.0274 0.8459 0.5327
vn 0.5236 0.7725 0.3593
vn -0.1388 0.8182 0.5579
vn -0.0644 0.5914 0.8038
vn -0.1716 0.5317 0.8294
vn -0.6870 0.3944 0.6104
vn -0.7148 0.1777 0.6764
vn -0.3937 0.1347 0.9093
vn -0.0839 0.1942 0.9774
vn -0.0228 0.0187 0.9996
vn -0.0215 -0.0256 0.9994
vn -0.1792 0.0155 0.9837
vn -0.3665 -0.1079 0.9242
vn -0.2010 -0.0433 0.9786
vn -0.5865 -0.1426 0.7973
vn -0.7220 -0.0917 0.6858
vn -0.6157 -0.3691 0.6962
vn -0.4732 -0.5381 0.6975
vn -0.2660 -0.4592 0.8476
vn -0.2572 -0.5120 0.8196
vn 0.0274 0.8459 -0.5327
vn -0.5236 0.7725 -0.3593
vn 0.1388 0.8182 -0.5579
vn 0.0644 0.5914 -0.8038
vn 0.1716 0.5317 -0.8294
vn 0.6870 0.3944 -0.6104
vn 0.7148 0.1777 -0.6764
vn 0.3937 0.1347 -0.9093
vn 0.0839 0.1942 -0.9774
vn 0.0228 0.0187 -0.9996
vn 0.0215 -0.0256 -0.9994
vn 0.1792 0.0155 -0.9837
vn 0.3665 -0.1079 -0.9242
vn 0.2010 -0.0433 -0.9786
vn 0.5865 -0.1426 -0.7973
vn 0.7220 -0.0917 -0.6858
vn 0.6157 -0.3691 -0.6962
vn 0.4732 -0.5381 -0.6975
vn 0.2660 -0.4592 -0.8476
vn 0.2572 -0.5120 -0.8196
vn -0.0274 0.8459 -0.5327
vn 0.5236 0.7725 -0.3593
vn -0.1388 0.8182 -0.5579
vn -0.0033 0.5471 -0.8370
vn -0.3195 0.3712 -0.8719
vn -0.6870 0.3944 -0.6104
vn -0.7148 0.1777 -0.6764
vn -0.3324 0.2127 -0.9188
vn -0.0692 0.2111 -0.9750
vn -0.0228 0.0187 -0.9996
vn -0.0215 -0.0256 -0.9994
vn -0.1792 0.0155 -0.9837
vn -0.3665 -0.1079 -0.9242
vn -0.2010 -0.0433 -0.9786
vn -0.5865 -0.1426 -0.7973
vn -0.7223 -0.0910 -0.6856
vn -0.6923 -0.2970 -0.6577
vn -0.5061 -0.5200 -0.6881
vn -0.0202 -0.3460 -0.9380
vn -0.2572 -0.5120 -0.8196
usemtl None.003
s 1
f 1/1/1 2/2/2 3/3/3
f 4/4/4 1/1/4 3/3/4
f 5/5/5 4/4/6 6/6/7
f 7/7/8 8/8/9 2/2/10
f 9/9/11 8/8/11 10/10/11
f 11/11/12 9/9/12 10/10/12
f 12/12/13 1/1/14 5/5/15
f 12/12/16 10/10/17 7/7/18
f 11/11/19 13/13/20 14/14/21
f 14/14/22 15/15/23 16/16/24
f 13/13/25 17/17/26 15/15/27
f 12/12/28 18/18/29 17/17/30
f 5/5/31 6/6/31 19/19/31
f 19/19/32 18/18/32 5/5/32
f 19/19/33 20/20/34 18/18/35
f 21/21/36 22/22/37 20/20/38
f 18/18/39 23/23/40 17/17/41
f 17/17/42 24/24/43 15/15/44
f 20/20/45 25/25/46 23/23/47
f 23/23/48 26/26/49 24/24/50
f 27/27/51 15/15/52 24/24/53
f 28/28/54 24/24/55 26/26/56
f 28/28/57 26/26/57 29/29/57
f 29/29/58 25/25/59 30/30/60
f 25/25/61 22/22/61 30/30/61
f 22/22/62 31/31/63 30/30/64
f 30/30/65 32/32/66 33/33/67
f 33/33/68 32/32/68 34/34/68
f 29/29/69 30/30/69 33/33/69
f 35/35/70 36/36/71 37/37/72
f 38/38/73 37/37/73 36/36/73
f 38/38/74 39/39/75 6/6/76
f 40/40/77 41/41/78 35/35/79
f 42/42/80 43/43/80 40/40/80
f 44/44/81 43/43/81 42/42/81
f 45/45/82 36/36/83 41/41/84
f 45/45/85 43/43/86 46/46/87
f 46/46/88 44/44/89 47/47/90
f 48/48/91 47/47/92 49/49/93
f 46/46/94 50/50/95 45/45/96
f 45/45/97 51/51/98 39/39/99
f 39/39/100 19/19/100 6/6/100
f 19/19/101 39/39/101 51/51/101
f 52/52/102 19/19/103 51/51/104
f 53/53/105 21/21/106 52/52/107
f 54/54/108 51/51/109 50/50/110
f 55/55/111 50/50/112 48/48/113
f 56/56/114 52/52/115 54/54/116
f 57/57/117 54/54/118 55/55/119
f 58/58/120 48/48/121 49/49/122
f 59/59/123 55/55/124 58/58/125
f 59/59/126 60/60/126 57/57/126
f 60/60/127 56/56/128 57/57/129
f 56/56/130 61/61/130 53/53/130
f 53/53/131 31/31/132 62/62/133
f 32/32/134 61/61/135 63/63/136
f 63/63/137 34/34/137 32/32/137
f 60/60/138 63/63/138 61/61/138
f 2/2/139 64/64/140 3/3/141
f 4/4/142 3/3/142 64/64/142
f 4/4/143 65/65/144 6/6/145
f 8/8/146 66/66/147 2/2/148
f 9/9/149 67/67/149 8/8/149
f 11/11/150 67/67/150 9/9/150
f 68/68/151 64/64/152 66/66/153
f 68/68/154 67/67/155 69/69/156
f 69/69/157 11/11/158 14/14/159
f 70/70/160 14/14/161 16/16/162
f 69/69/163 71/71/164 68/68/165
f 68/68/166 72/72/167 65/65/168
f 65/65/169 73/73/169 6/6/169
f 73/73/170 65/65/170 72/72/170
f 74/74/171 73/73/172 72/72/173
f 75/75/174 76/76/175 74/74/176
f 77/77/177 72/72/178 71/71/179
f 78/78/180 71/71/181 70/70/182
f 79/79/183 74/74/184 77/77/185
f 80/80/186 77/77/187 78/78/188
f 27/27/189 70/70/190 16/16/191
f 28/28/192 78/78/193 27/27/194
f 28/28/195 29/29/195 80/80/195
f 29/29/196 79/79/197 80/80/198
f 79/79/199 81/81/199 75/75/199
f 75/75/200 82/82/201 83/83/202
f 84/84/203 81/81/204 33/33/205
f 33/33/206 34/34/206 84/84/206
f 29/29/207 33/33/207 81/81/207
f 85/85/208 35/35/209 37/37/210
f 38/38/211 85/85/211 37/37/211
f 86/86/212 38/38/213 6/6/214
f 87/87/215 40/40/216 35/35/217
f 42/42/218 40/40/218 88/88/218
f 44/44/219 42/42/219 88/88/219
f 89/89/220 85/85/221 86/86/222
f 89/89/223 88/88/224 87/87/225
f 44/44/226 90/90/227 47/47/228
f 47/47/229 91/91/230 49/49/231
f 90/90/232 92/92/233 91/91/234
f 89/89/235 93/93/236 92/92/237
f 86/86/238 6/6/238 73/73/238
f 73/73/239 93/93/239 86/86/239
f 73/73/240 94/94/241 93/93/242
f 76/76/243 95/95/244 94/94/245
f 93/93/246 96/96/247 92/92/248
f 92/92/249 97/97/250 91/91/251
f 94/94/252 98/98/253 96/96/254
f 96/96/255 99/99/256 97/97/257
f 58/58/258 91/91/259 97/97/260
f 59/59/261 97/97/262 99/99/263
f 59/59/264 99/99/264 60/60/264
f 60/60/265 98/98/266 100/100/267
f 98/98/268 95/95/268 100/100/268
f 95/95/269 82/82/270 100/100/271
f 100/100/272 84/84/273 63/63/274
f 63/63/275 84/84/275 34/34/275
f 60/60/276 100/100/276 63/63/276
f 1/1/1 7/7/277 2/2/2
f 5/5/5 1/1/278 4/4/6
f 7/7/8 10/10/279 8/8/9
f 12/12/13 7/7/280 1/1/14
f 12/12/16 13/13/281 10/10/17
f 11/11/19 10/10/282 13/13/20
f 14/14/22 13/13/283 15/15/23
f 13/13/25 12/12/284 17/17/26
f 12/12/28 5/5/285 18/18/29
f 19/19/33 21/21/286 20/20/34
f 21/21/36 62/62/287 22/22/37
f 18/18/39 20/20/288 23/23/40
f 17/17/42 23/23/289 24/24/43
f 20/20/45 22/22/290 25/25/46
f 23/23/48 25/25/291 26/26/49
f 27/27/51 16/16/292 15/15/52
f 28/28/54 27/27/293 24/24/55
f 29/29/58 26/26/294 25/25/59
f 22/22/62 62/62/295 31/31/63
f 30/30/65 31/31/296 32/32/66
f 35/35/70 41/41/297 36/36/71
f 38/38/74 36/36/298 39/39/75
f 40/40/77 43/43/299 41/41/78
f 45/45/82 39/39/300 36/36/83
f 45/45/85 41/41/301 43/43/86
f 46/46/88 43/43/302 44/44/89
f 48/48/91 46/46/303 47/47/92
f 46/46/94 48/48/304 50/50/95
f 45/45/97 50/50/305 51/51/98
f 52/52/102 21/21/306 19/19/103
f 53/53/105 62/62/307 21/21/106
f 54/54/108 52/52/308 51/51/109
f 55/55/111 54/54/309 50/50/112
f 56/56/114 53/53/310 52/52/115
f 57/57/117 56/56/311 54/54/118
f 58/58/120 55/55/312 48/48/121
f 59/59/123 57/57/313 55/55/124
f 60/60/127 61/61/314 56/56/128
f 53/53/131 61/61/315 31/31/132
f 32/32/134 31/31/316 61/61/135
f 2/2/139 66/66/317 64/64/140
f 4/4/143 64/64/318 65/65/144
f 8/8/146 67/67/319 66/66/147
f 68/68/151 65/65/320 64/64/152
f 68/68/154 66/66/321 67/67/155
f 69/69/157 67/67/322 11/11/158
f 70/70/160 69/69/323 14/14/161
f 69/69/163 70/70/324 71/71/164
f 68/68/166 71/71/325 72/72/167
f 74/74/171 76/76/326 73/73/172
f 75/75/174 83/83/327 76/76/175
f 77/77/177 74/74/328 72/72/178
f 78/78/180 77/77/329 71/71/181
f 79/79/183 75/75/330 74/74/184
f 80/80/186 79/79/331 77/77/187
f 27/27/189 78/78/332 70/70/190
f 28/28/192 80/80/333 78/78/193
f 29/29/196 81/81/334 79/79/197
f 75/75/200 81/81/335 82/82/201
f 84/84/203 82/82/336 81/81/204
f 85/85/208 87/87/337 35/35/209
f 86/86/212 85/85/338 38/38/213
f 87/87/215 88/88/339 40/40/216
f 89/89/220 87/87/340 85/85/221
f 89/89/223 90/90/341 88/88/224
f 44/44/226 88/88/342 90/90/227
f 47/47/229 90/90/343 91/91/230
f 90/90/232 89/89/344 92/92/233
f 89/89/235 86/86/345 93/93/236
f 73/73/240 76/76/346 94/94/241
f 76/76/243 83/83/347 95/95/244
f 93/93/246 94/94/348 96/96/247
f 92/92/249 96/96/349 97/97/250
f 94/94/252 95/95/350 98/98/253
f 96/96/255 98/98/351 99/99/256
f 58/58/258 49/49/352 91/91/259
f 59/59/261 58/58/353 97/97/262
f 60/60/265 99/99/354 98/98/266
f 95/95/269 83/83/355 82/82/270
f 100/100/272 82/82/356 84/84/273
