# Blender v2.82 (sub 7) OBJ File: ''
# www.blender.org
mtllib mondsichel.mtl
o Sphere.001
v 0.176637 0.817569 0.110380
v 0.090971 0.879594 0.098205
v 0.081172 0.734659 0.141498
v 0.090971 0.879594 -0.098205
v 0.176637 0.817569 -0.110380
v 0.081172 0.734659 -0.141498
v 0.090971 0.946238 -0.051630
v 0.090971 0.969203 0.000000
v 0.176195 0.946238 -0.041769
v 0.272927 0.875753 -0.071933
v 0.228866 0.946238 -0.015955
v 0.342835 0.894464 0.000000
v 0.228866 0.946238 0.015955
v 0.272927 0.875753 0.071934
v 0.176195 0.946238 0.041769
v 0.090971 0.946238 0.051629
v 0.005747 0.946238 0.041769
v -0.071135 0.879594 0.079450
v -0.132148 0.775791 0.109353
v -0.333427 0.644991 0.049103
v -0.171322 0.644991 0.128552
v -0.046924 0.946238 0.015955
v -0.355267 0.500000 0.051629
v -0.184820 0.500000 0.135168
v -0.171322 0.879594 0.030347
v -0.270044 0.775791 0.041769
v -0.171322 0.879594 -0.030347
v -0.270044 0.775791 -0.041769
v -0.333427 0.644991 -0.049103
v -0.046924 0.946238 -0.015955
v -0.355267 0.500000 -0.051629
v -0.071135 0.879594 -0.079450
v 0.030026 0.644991 -0.151848
v 0.030026 0.644991 0.151848
v -0.004745 0.500000 -0.156002
v 0.007351 0.576289 0.153100
v -0.004745 0.500000 0.156002
v -0.132148 0.775791 -0.109353
v -0.171322 0.644991 -0.128552
v 0.005747 0.946238 -0.041769
v -0.184820 0.500000 -0.135168
v 0.007351 0.576289 -0.153100
v 0.090971 0.120406 0.098205
v 0.176637 0.182431 0.110380
v 0.081172 0.265341 0.141498
v 0.176637 0.182431 -0.110380
v 0.090971 0.120406 -0.098205
v 0.090971 0.224209 -0.135168
v 0.090971 0.053762 -0.051630
v 0.176195 0.053762 -0.041769
v 0.090971 0.030797 -0.000000
v 0.228866 0.053762 -0.015955
v 0.272927 0.124247 -0.071934
v 0.228866 0.053762 0.015955
v 0.272927 0.124247 0.071933
v 0.342835 0.105536 -0.000000
v 0.176195 0.053762 0.041769
v 0.090971 0.053762 0.051629
v 0.005747 0.053762 0.041769
v -0.071135 0.120406 0.079450
v -0.132148 0.224209 0.109353
v -0.333427 0.355009 0.049103
v -0.171322 0.355009 0.128552
v -0.046924 0.053762 0.015955
v -0.171322 0.120406 0.030347
v -0.270044 0.224209 0.041769
v -0.171322 0.120406 -0.030347
v -0.333427 0.355009 -0.049103
v -0.046924 0.053762 -0.015955
v -0.071135 0.120406 -0.079450
v 0.030026 0.355009 -0.151848
v 0.030026 0.355009 0.151848
v 0.007351 0.423711 0.153100
v -0.270044 0.224209 -0.041769
v -0.171322 0.355009 -0.128552
v 0.005747 0.053762 -0.041769
v 0.007351 0.423711 -0.153100
v -0.132148 0.224209 -0.109353
vt 0.296873 0.786685
vt 0.200000 0.800000
vt 0.200000 0.700000
vt 0.700000 0.800000
vt 0.685961 0.700000
vt 0.700000 0.700000
vt 0.700000 0.900000
vt 0.650000 1.000000
vt 0.600000 0.900000
vt 0.600000 0.800000
vt 0.550000 1.000000
vt 0.500000 0.900000
vt 0.500000 0.800000
vt 0.450000 1.000000
vt 0.400000 0.900000
vt 0.300000 0.800000
vt 0.400000 0.800000
vt 0.350000 1.000000
vt 0.300000 0.900000
vt 0.250000 1.000000
vt 0.200000 0.900000
vt 0.150000 1.000000
vt 0.100000 0.900000
vt 0.100000 0.800000
vt 0.100000 0.700000
vt 0.000000 0.600000
vt 0.100000 0.600000
vt 0.050000 1.000000
vt 0.000000 0.900000
vt 0.000000 0.500000
vt 0.100000 0.500000
vt 0.000000 0.800000
vt 0.000000 0.700000
vt 1.000000 0.700000
vt 0.900000 0.800000
vt 0.900000 0.700000
vt 0.900000 0.600000
vt 1.000000 0.600000
vt 1.000000 0.900000
vt 0.950000 1.000000
vt 0.900000 0.900000
vt 0.900000 0.500000
vt 1.000000 0.500000
vt 1.000000 0.800000
vt 0.800000 0.800000
vt 0.723235 0.600000
vt 0.200000 0.675127
vt 0.176764 0.600000
vt 0.734706 0.500000
vt 0.168956 0.552616
vt 0.165294 0.500000
vt 0.800000 0.700000
vt 0.600000 0.787459
vt 0.300000 0.787459
vt 0.800000 0.600000
vt 0.850000 1.000000
vt 0.800000 0.900000
vt 0.700000 0.675127
vt 0.214039 0.700000
vt 0.800000 0.500000
vt 0.731044 0.552616
vt 0.750000 1.000000
vt 0.200000 0.800000
vt 0.296873 0.786685
vt 0.200000 0.700000
vt 0.685961 0.700000
vt 0.700000 0.800000
vt 0.700000 0.700000
vt 0.700000 0.900000
vt 0.600000 0.900000
vt 0.650000 1.000000
vt 0.500000 0.900000
vt 0.550000 1.000000
vt 0.600000 0.800000
vt 0.400000 0.900000
vt 0.450000 1.000000
vt 0.300000 0.800000
vt 0.400000 0.800000
vt 0.300000 0.900000
vt 0.350000 1.000000
vt 0.200000 0.900000
vt 0.250000 1.000000
vt 0.100000 0.900000
vt 0.150000 1.000000
vt 0.100000 0.800000
vt 0.100000 0.700000
vt 0.000000 0.600000
vt 0.100000 0.600000
vt 0.000000 0.900000
vt 0.050000 1.000000
vt 0.000000 0.800000
vt 1.000000 0.700000
vt 0.900000 0.800000
vt 1.000000 0.800000
vt 0.900000 0.600000
vt 1.000000 0.600000
vt 1.000000 0.900000
vt 0.900000 0.900000
vt 0.950000 1.000000
vt 0.800000 0.800000
vt 0.200000 0.675127
vt 0.723235 0.600000
vt 0.176764 0.600000
vt 0.168956 0.552616
vt 0.900000 0.700000
vt 0.300000 0.787459
vt 0.600000 0.787459
vt 0.800000 0.600000
vt 0.800000 0.900000
vt 0.850000 1.000000
vt 0.214039 0.700000
vt 0.700000 0.675127
vt 0.731044 0.552616
vt 0.800000 0.700000
vt 0.750000 1.000000
vt 0.500000 0.800000
vt 0.708111 0.661979
vt 0.000000 0.700000
vn 0.0677 0.2813 0.9572
vn 0.0677 0.2813 -0.9572
vn 0.0470 0.9127 -0.4060
vn 0.1316 0.5372 -0.8331
vn 0.1288 0.9562 -0.2629
vn 0.4034 0.7103 -0.5768
vn 0.1643 0.9864 0.0000
vn 0.4034 0.7103 0.5768
vn 0.1288 0.9562 0.2629
vn 0.0470 0.9127 0.4060
vn 0.1316 0.5372 0.8331
vn -0.0470 0.9127 0.4060
vn -0.0944 0.5703 0.8160
vn -0.0876 0.2905 0.9528
vn -0.4256 0.2549 0.8683
vn -0.1288 0.9562 0.2629
vn -0.4386 0.0817 0.8950
vn -0.4386 0.0817 0.8949
vn -0.3088 0.7125 0.6301
vn -0.3909 0.4595 0.7975
vn -0.7246 0.6892 0.0000
vn -0.8999 0.4361 0.0000
vn -0.1643 0.9864 0.0000
vn -0.9888 0.1490 0.0000
vn -0.4722 0.8815 0.0000
vn -0.3088 0.7125 -0.6301
vn 0.8686 -0.4955 -0.0000
vn 0.9877 -0.1566 -0.0000
vn -0.3909 0.4595 -0.7975
vn 0.2585 -0.9660 0.0000
vn -0.4256 0.2549 -0.8683
vn -0.1288 0.9562 -0.2629
vn 0.6557 -0.7550 0.0000
vn -0.4386 0.0817 -0.8950
vn -0.1148 0.0559 -0.9918
vn -0.0944 0.5703 -0.8160
vn 0.9496 -0.3134 -0.0000
vn -0.0876 0.2905 -0.9528
vn -0.1131 0.1774 -0.9776
vn -0.0470 0.9127 -0.4060
vn 0.4136 0.9105 0.0000
vn -0.1148 0.0559 0.9918
vn -0.1131 0.1774 0.9776
vn 0.0677 -0.2813 0.9572
vn 0.1084 -0.3335 -0.9365
vn 0.0470 -0.9127 -0.4060
vn 0.0944 -0.5703 -0.8160
vn 0.1288 -0.9562 -0.2629
vn 0.3130 -0.7029 -0.6387
vn 0.1643 -0.9864 0.0000
vn 0.4034 -0.7103 0.5768
vn 0.1288 -0.9562 0.2629
vn 0.0470 -0.9127 0.4060
vn 0.1316 -0.5372 0.8331
vn -0.0470 -0.9127 0.4060
vn -0.0944 -0.5703 0.8160
vn -0.0876 -0.2905 0.9528
vn -0.4256 -0.2549 0.8683
vn -0.1288 -0.9562 0.2629
vn -0.4386 -0.0817 0.8950
vn -0.3088 -0.7125 0.6301
vn -0.3909 -0.4595 0.7975
vn -0.7246 -0.6892 0.0000
vn -0.8999 -0.4361 0.0000
vn -0.1643 -0.9864 0.0000
vn -0.9888 -0.1490 -0.0000
vn -0.4722 -0.8815 0.0000
vn -0.3088 -0.7125 -0.6301
vn 0.8686 0.4955 0.0000
vn 0.9877 0.1566 0.0000
vn -0.3909 -0.4595 -0.7975
vn 0.5172 0.8559 0.0000
vn -0.4256 -0.2549 -0.8683
vn -0.1288 -0.9562 -0.2629
vn 0.6358 0.7664 -0.0914
vn -0.4386 -0.0817 -0.8950
vn -0.1148 -0.0559 -0.9918
vn -0.0944 -0.5703 -0.8160
vn 0.9496 0.3134 0.0000
vn -0.1084 -0.3335 -0.9365
vn -0.1131 -0.1774 -0.9776
vn -0.0470 -0.9127 -0.4060
vn 0.4136 -0.9105 0.0000
vn -0.1148 -0.0559 0.9918
vn -0.1131 -0.1774 0.9776
vn 0.1403 0.3737 0.9169
vn 0.1403 0.3737 -0.9169
vn 0.0944 0.5703 -0.8160
vn 0.3130 0.7029 -0.6387
vn 0.3130 0.7029 0.6387
vn 0.0944 0.5703 0.8160
vn -0.1084 0.3335 0.9365
vn 0.5172 -0.8559 0.0000
vn -0.1084 0.3335 -0.9365
vn 0.1403 -0.3737 0.9169
vn 0.1403 -0.3737 -0.9169
vn 0.1316 -0.5372 -0.8331
vn 0.4034 -0.7103 -0.5768
vn 0.3130 -0.7029 0.6387
vn 0.0944 -0.5703 0.8160
vn -0.1084 -0.3335 0.9365
vn 0.9075 0.4190 -0.0302
vn 0.2585 0.9660 0.0000
vn 0.4383 0.8988 0.0000
usemtl None.004
s 1
f 1/1/1 2/2/1 3/3/1
f 4/4/2 5/5/2 6/6/2
f 7/7/3 8/8/3 9/9/3
f 4/4/4 9/9/4 10/10/4
f 9/9/5 8/11/5 11/12/5
f 10/10/6 11/12/6 12/13/6
f 11/12/7 8/14/7 13/15/7
f 13/15/8 14/16/8 12/17/8
f 13/15/9 8/18/9 15/19/9
f 15/19/10 8/20/10 16/21/10
f 15/19/11 2/2/11 14/16/11
f 16/21/12 8/22/12 17/23/12
f 16/21/13 18/24/13 2/2/13
f 2/2/14 19/25/14 3/3/14
f 19/25/15 20/26/15 21/27/15
f 17/23/16 8/28/16 22/29/16
f 21/27/17 23/30/17 24/31/18
f 17/23/19 25/32/19 18/24/19
f 19/25/20 25/32/20 26/33/20
f 26/34/21 27/35/21 28/36/21
f 26/34/22 29/37/22 20/38/22
f 22/39/23 8/40/23 30/41/23
f 20/38/24 31/42/24 23/43/24
f 22/39/25 27/35/25 25/44/25
f 30/41/26 32/45/26 27/35/26
f 33/46/27 3/47/27 34/48/27
f 35/49/28 36/50/28 37/51/28
f 28/36/29 32/45/29 38/52/29
f 10/53/30 12/17/30 14/54/30
f 28/36/31 39/55/31 29/37/31
f 30/41/32 8/56/32 40/57/32
f 6/58/33 1/59/33 3/47/33
f 29/37/34 41/60/34 31/42/34
f 39/55/35 33/46/35 42/61/35
f 40/57/36 4/4/36 32/45/36
f 42/61/37 34/48/37 36/50/37
f 38/52/38 4/4/38 6/6/38
f 38/52/39 33/46/39 39/55/39
f 40/57/40 8/62/40 7/7/40
f 12/13/41 11/12/41 13/15/41
f 36/50/42 21/27/42 24/31/42
f 34/48/43 19/25/43 21/27/43
f 43/63/44 44/64/44 45/65/44
f 46/66/45 47/67/45 48/68/45
f 49/69/46 50/70/46 51/71/46
f 47/67/47 50/70/47 49/69/47
f 50/70/48 52/72/48 51/73/48
f 53/74/49 52/72/49 50/70/49
f 52/72/50 54/75/50 51/76/50
f 55/77/51 54/75/51 56/78/51
f 54/75/52 57/79/52 51/80/52
f 57/79/53 58/81/53 51/82/53
f 43/63/54 57/79/54 55/77/54
f 58/81/55 59/83/55 51/84/55
f 60/85/56 58/81/56 43/63/56
f 61/86/57 43/63/57 45/65/57
f 62/87/58 61/86/58 63/88/58
f 59/83/59 64/89/59 51/90/59
f 23/30/60 63/88/60 24/31/60
f 65/91/61 59/83/61 60/85/61
f 61/86/62 65/91/62 60/85/62
f 66/92/63 67/93/63 65/94/63
f 68/95/64 66/92/64 62/96/64
f 64/97/65 69/98/65 51/99/65
f 31/42/66 62/96/66 23/43/66
f 67/93/67 64/97/67 65/94/67
f 70/100/68 69/98/68 67/93/68
f 45/101/69 71/102/69 72/103/69
f 73/104/70 35/49/70 37/51/70
f 74/105/71 70/100/71 67/93/71
f 55/106/72 53/107/72 46/66/72
f 75/108/73 74/105/73 68/95/73
f 69/98/74 76/109/74 51/110/74
f 44/111/75 48/112/75 45/101/75
f 41/60/76 68/95/76 31/42/76
f 77/113/77 71/102/77 75/108/77
f 70/100/78 49/69/78 76/109/78
f 72/103/79 77/113/79 73/104/79
f 78/114/80 47/67/80 70/100/80
f 71/102/81 78/114/81 75/108/81
f 76/109/82 49/69/82 51/115/82
f 56/116/83 54/75/83 52/72/83
f 63/88/84 72/103/84 73/104/84
f 72/103/85 61/86/85 45/101/85
f 1/1/86 14/16/86 2/2/86
f 4/4/87 10/53/87 5/5/87
f 4/4/88 7/7/88 9/9/88
f 10/10/89 9/9/89 11/12/89
f 13/15/90 15/19/90 14/16/90
f 15/19/91 16/21/91 2/2/91
f 16/21/13 17/23/13 18/24/13
f 2/2/92 18/24/92 19/25/92
f 19/25/15 26/33/15 20/26/15
f 21/27/17 20/26/17 23/30/17
f 17/23/19 22/29/19 25/32/19
f 19/25/20 18/24/20 25/32/20
f 26/34/21 25/44/21 27/35/21
f 26/34/22 28/36/22 29/37/22
f 20/38/24 29/37/24 31/42/24
f 22/39/25 30/41/25 27/35/25
f 30/41/26 40/57/26 32/45/26
f 33/46/27 6/58/27 3/47/27
f 35/49/28 42/61/28 36/50/28
f 28/36/29 27/35/29 32/45/29
f 14/54/93 1/1/93 5/5/93
f 5/5/93 10/53/93 14/54/93
f 28/36/31 38/52/31 39/55/31
f 6/58/33 5/5/33 1/59/33
f 29/37/34 39/55/34 41/60/34
f 35/49/35 41/60/35 42/61/35
f 41/60/35 39/55/35 42/61/35
f 40/57/36 7/7/36 4/4/36
f 42/61/37 33/46/37 34/48/37
f 38/52/94 32/45/94 4/4/94
f 38/52/39 6/117/39 33/46/39
f 24/31/42 37/51/42 36/50/42
f 36/50/42 34/48/42 21/27/42
f 34/48/43 3/3/43 19/25/43
f 43/63/95 55/77/95 44/64/95
f 46/66/96 53/107/96 47/67/96
f 47/67/97 53/74/97 50/70/97
f 53/74/98 56/116/98 52/72/98
f 55/77/99 57/79/99 54/75/99
f 43/63/100 58/81/100 57/79/100
f 60/85/56 59/83/56 58/81/56
f 61/86/101 60/85/101 43/63/101
f 62/87/58 66/118/58 61/86/58
f 23/30/60 62/87/60 63/88/60
f 65/91/61 64/89/61 59/83/61
f 61/86/62 66/118/62 65/91/62
f 66/92/63 74/105/63 67/93/63
f 68/95/64 74/105/64 66/92/64
f 31/42/66 68/95/66 62/96/66
f 67/93/67 69/98/67 64/97/67
f 70/100/68 76/109/68 69/98/68
f 45/101/102 48/112/102 71/102/102
f 73/104/70 77/113/70 35/49/70
f 74/105/71 78/114/71 70/100/71
f 46/66/72 44/64/72 55/106/72
f 55/106/103 56/78/103 53/107/103
f 75/108/73 78/114/73 74/105/73
f 44/111/104 46/66/104 48/112/104
f 41/60/76 75/108/76 68/95/76
f 75/108/77 41/60/77 77/113/77
f 41/60/77 35/49/77 77/113/77
f 70/100/78 47/67/78 49/69/78
f 72/103/79 71/102/79 77/113/79
f 78/114/80 48/68/80 47/67/80
f 71/102/81 48/68/81 78/114/81
f 73/104/84 37/51/84 24/31/84
f 24/31/84 63/88/84 73/104/84
f 72/103/85 63/88/85 61/86/85
