# Blender v2.82 (sub 7) OBJ File: ''
# www.blender.org
mtllib wuerfel.mtl
o Cube_Cube.005
v -0.460000 -0.000000 0.460000
v -0.460000 0.040000 0.500000
v -0.500000 0.040000 0.460000
v -0.460000 0.960000 0.500000
v -0.460000 1.000000 0.460000
v -0.500000 0.960000 0.460000
v -0.460000 1.000000 -0.460000
v -0.460000 0.960000 -0.500000
v -0.500000 0.960000 -0.460000
v -0.460000 0.000000 -0.460000
v -0.500000 0.040000 -0.460000
v -0.460000 0.040000 -0.500000
v 0.460000 1.000000 -0.460000
v 0.500000 0.960000 -0.460000
v 0.460000 0.960000 -0.500000
v 0.460000 0.000000 -0.460000
v 0.460000 0.040000 -0.500000
v 0.500000 0.040000 -0.460000
v 0.460000 1.000000 0.460000
v 0.460000 0.960000 0.500000
v 0.500000 0.960000 0.460000
v 0.460000 -0.000000 0.460000
v 0.500000 0.040000 0.460000
v 0.460000 0.040000 0.500000
vt 0.385000 0.760000
vt 0.615000 0.760000
vt 0.615000 0.990000
vt 0.385000 0.990000
vt 0.385000 0.510000
vt 0.615000 0.510000
vt 0.615000 0.740000
vt 0.385000 0.740000
vt 0.635000 0.510000
vt 0.865000 0.510000
vt 0.865000 0.740000
vt 0.635000 0.740000
vt 0.385000 0.010000
vt 0.615000 0.010000
vt 0.615000 0.240000
vt 0.385000 0.240000
vt 0.385000 0.260000
vt 0.615000 0.260000
vt 0.615000 0.490000
vt 0.385000 0.490000
vt 0.135000 0.740000
vt 0.135000 0.750000
vt 0.125000 0.740000
vt 0.625000 0.990000
vt 0.615000 1.000000
vt 0.865000 0.500000
vt 0.875000 0.510000
vt 0.135000 0.510000
vt 0.125000 0.510000
vt 0.135000 0.500000
vt 0.625000 0.510000
vt 0.635000 0.500000
vt 0.365000 0.510000
vt 0.365000 0.500000
vt 0.375000 0.510000
vt 0.635000 0.750000
vt 0.625000 0.740000
vt 0.365000 0.740000
vt 0.375000 0.740000
vt 0.365000 0.750000
vt 0.375000 0.240000
vt 0.375000 0.010000
vt 0.385000 1.000000
vt 0.875000 0.740000
vt 0.375000 0.490000
vt 0.375000 0.260000
vt 0.625000 0.760000
vn 0.0000 -0.0000 1.0000
vn 1.0000 0.0000 0.0000
vn 0.0000 1.0000 0.0000
vn -1.0000 0.0000 0.0000
vn 0.0000 0.0000 -1.0000
vn -0.5774 -0.5774 0.5774
vn -0.5773 0.5774 0.5773
vn -0.5773 0.5773 -0.5774
vn -0.5774 -0.5774 -0.5774
vn 0.5773 0.5773 -0.5774
vn 0.5774 -0.5774 -0.5774
vn 0.5773 0.5774 0.5773
vn 0.5774 -0.5774 0.5774
vn -0.7071 -0.7071 -0.0000
vn -0.7071 -0.0000 0.7071
vn -0.7071 0.7071 0.0000
vn -0.7071 0.0000 -0.7071
vn 0.0000 -0.7071 -0.7071
vn 0.0000 0.7071 -0.7071
vn 0.7071 0.0000 -0.7071
vn 0.7071 -0.7071 -0.0000
vn 0.7071 0.7071 0.0000
vn 0.7071 -0.0000 0.7071
vn 0.0000 -0.7071 0.7071
vn 0.0000 0.7071 0.7071
vn 0.0000 -1.0000 -0.0000
usemtl None.006
s off
f 24/1/1 20/2/1 4/3/1 2/4/1
f 18/5/2 14/6/2 21/7/2 23/8/2
f 13/9/3 7/10/3 5/11/3 19/12/3
f 3/13/4 6/14/4 9/15/4 11/16/4
f 12/17/5 8/18/5 15/19/5 17/20/5
f 1/21/6 2/22/6 3/23/6
f 4/3/7 5/24/7 6/25/7
f 7/10/8 8/26/8 9/27/8
f 10/28/9 11/29/9 12/30/9
f 13/9/10 14/31/10 15/32/10
f 16/33/11 17/34/11 18/35/11
f 19/12/12 20/36/12 21/37/12
f 22/38/13 23/39/13 24/40/13
f 3/13/14 11/16/14 10/41/14 1/42/14
f 2/4/15 4/3/15 6/25/15 3/43/15
f 5/11/16 7/10/16 9/27/16 6/44/16
f 8/18/17 12/17/17 11/16/17 9/15/17
f 12/17/18 17/20/18 16/45/18 10/46/18
f 7/10/19 13/9/19 15/32/19 8/26/19
f 14/6/20 18/5/20 17/20/20 15/19/20
f 18/5/21 23/8/21 22/38/21 16/33/21
f 13/9/22 19/12/22 21/7/22 14/6/22
f 20/2/23 24/1/23 23/8/23 21/7/23
f 1/21/24 22/38/24 24/40/24 2/22/24
f 4/3/25 20/2/25 19/47/25 5/24/25
f 10/28/26 16/33/26 22/38/26 1/21/26
