# Blender v2.82 (sub 7) OBJ File: 'CG_Test.blend'
# www.blender.org
mtllib Boden.mtl
o Boden_Circle.006
v 53.788467 -0.000002 7.779943
v 53.786945 -0.000000 -23.773872
v -7.712057 -0.000000 7.397523
v -7.563389 0.000007 -40.727734
v -6.370239 -0.071136 -40.692619
v 49.990841 0.000000 -24.701616
v 35.959286 -0.126557 -28.814754
v 21.738722 -0.205314 -28.970798
v 9.585011 -0.200751 -29.368362
v 1.086825 -0.157480 -34.539886
v -23.850956 -0.000002 36.439007
v -36.627754 -0.000002 45.966595
v -40.291138 -0.000002 61.477913
v -33.126968 -0.000002 75.715050
v -18.487434 -0.000002 82.016296
v -3.222540 -0.000002 77.433212
v 5.525094 -0.000002 64.110291
v 3.662363 -0.000002 48.281464
v -7.939141 -0.000002 37.353222
v 73.958389 -0.000009 48.087631
v 73.958389 0.000003 -24.724907
v 53.786945 -0.000000 -23.773872
v 3.421111 -0.000009 48.087624
v -7.627449 -0.000007 37.672775
v 63.101742 0.311964 -21.462290
v -70.492401 0.000010 -58.360626
v -63.620964 0.000010 -51.498287
v -66.460892 0.000009 -53.952599
v -67.380135 0.000009 -54.871841
v 63.214790 0.000004 -21.694424
v 56.543182 0.000005 -23.058273
v 56.620712 0.000005 -23.348867
v -15.620960 0.000007 -43.553799
v -6.211060 0.000007 -40.943783
v 74.317398 0.000004 -25.021564
v -56.445770 0.000014 -86.606422
v -26.275814 0.000007 -42.428986
v -34.393456 0.000015 -92.357925
v -37.374775 0.000006 -39.680641
v 45.829208 0.000015 -89.664192
v 35.927868 0.000005 -29.091305
v 50.040924 0.000004 -24.999725
v -73.718513 0.000013 -79.591766
v -79.131477 0.000011 -69.104355
v -51.291264 0.000007 -41.933929
v 57.568840 0.000014 -84.018250
v 18.454920 0.000014 -88.877899
v 76.545197 0.000009 -53.600754
v 67.932487 0.000012 -71.579697
v 32.513367 0.000015 -89.522217
v 4.061584 0.000015 -91.986633
v -12.996376 0.000015 -94.702202
v 79.697594 0.000006 -36.080482
v 21.738722 -0.205314 -28.970798
v 9.585011 -0.200751 -29.368362
v 1.086825 -0.157480 -34.539886
v 55.359665 0.000005 -23.665262
v 55.282082 0.000005 -23.374439
v -73.131142 0.000001 -7.337775
v -46.579811 0.000006 -34.339470
v -99.339828 0.000006 -34.339462
v -73.093803 0.000010 -60.585510
v -27.081802 0.000007 -40.727730
v -26.904926 0.000006 -37.179195
v -42.698612 0.000006 -37.179188
v -55.828815 -0.000001 7.547815
v -7.563389 0.000007 -40.727734
v -42.698612 0.000006 -33.984398
vt 0.000000 0.000000
vt 0.000000 0.000000
vt 0.000000 0.000000
vt 0.000000 0.000000
vt 0.000000 0.000000
vt 0.000000 0.000000
vt 0.000000 0.000000
vt 0.000000 0.000000
vt 0.000000 0.000000
vt 0.000000 0.000000
vt 0.000000 0.000000
vt 0.000000 0.000000
vt 0.000000 0.000000
vt 0.000000 0.000000
vt 0.000000 0.000000
vt 0.000000 0.000000
vt 0.000000 0.000000
vt 0.000000 0.000000
vt 0.000000 0.000000
vt 0.000000 0.000000
vt 0.000000 0.000000
vt 0.000000 0.000000
vt 0.000000 0.000000
vt 0.000000 0.000000
vt 0.000000 0.000000
vt 0.000000 0.000000
vt 0.000000 0.000000
vt 0.000000 0.000000
vt 0.000000 0.000000
vt 0.000000 0.000000
vt 0.000000 0.000000
vt 0.000000 0.000000
vt 0.000000 0.000000
vt 0.000000 0.000000
vt 0.000000 0.000000
vt 0.000000 0.000000
vt 0.000000 0.000000
vt 0.000000 0.000000
vt 0.000000 0.000000
vt 0.000000 0.000000
vt 0.000000 0.000000
vt 0.000000 0.000000
vt 0.000000 0.000000
vt 0.000000 0.000000
vt 0.000000 0.000000
vt 0.000000 0.000000
vt 0.000000 0.000000
vt 0.000000 0.000000
vt 0.000000 0.000000
vt 0.000000 0.000000
vt 0.000000 0.000000
vt 0.000000 0.000000
vt 0.000000 0.000000
vt 0.000000 0.000000
vt 0.000000 0.000000
vt 0.000000 0.000000
vt 0.000000 0.000000
vt 0.000000 0.000000
vt 0.000000 0.000000
vt 0.000000 0.000000
vt 0.000000 0.000000
vt 0.000000 0.000000
vt 0.000000 0.000000
vt 0.000000 0.000000
vt 0.000000 0.000000
vt 0.000000 0.000000
vt 0.000000 0.000000
vt 0.000000 0.000000
vn 0.0005 1.0000 -0.0052
vn 0.0000 1.0000 -0.0000
vn 0.0353 0.9991 0.0219
vn 0.0000 1.0000 -0.0056
vn 0.0182 0.9998 0.0001
vn 0.0612 0.9963 -0.0602
vn 0.0065 1.0000 -0.0024
vn -0.0093 1.0000 0.0011
vn -0.0055 1.0000 -0.0008
vn -0.0335 0.9994 0.0000
vn 0.0002 1.0000 0.0034
vn -0.0145 0.9999 0.0008
vn 0.0149 0.9999 0.0076
vn 0.0001 1.0000 0.0082
vn 0.0014 1.0000 0.0033
usemtl None
s off
f 3/1/1 8/2/1 9/3/1
f 13/4/2 17/5/2 19/6/2
f 1/7/2 23/8/2 20/9/2
f 25/10/3 1/7/3 21/11/3
f 32/12/2 48/13/2 57/14/2
f 61/15/2 59/16/2 60/17/2
f 67/18/2 63/19/2 64/20/2
f 6/21/2 1/7/2 2/22/2
f 1/7/4 8/2/4 3/1/4
f 3/1/5 10/23/5 4/24/5
f 4/24/6 10/23/6 5/25/6
f 3/1/7 9/3/7 10/23/7
f 7/26/8 1/7/8 6/21/8
f 8/2/9 1/7/9 7/26/9
f 11/27/2 12/28/2 19/6/2
f 12/28/2 13/4/2 19/6/2
f 13/4/2 14/29/2 17/5/2
f 14/29/2 15/30/2 17/5/2
f 15/30/2 16/31/2 17/5/2
f 17/5/2 18/32/2 19/6/2
f 23/8/2 3/1/2 24/33/2
f 3/1/2 23/8/2 1/7/2
f 20/9/2 21/11/2 1/7/2
f 1/7/10 25/10/10 22/34/10
f 29/35/2 28/36/2 26/37/2
f 28/36/2 27/38/2 26/37/2
f 27/38/2 45/39/2 36/40/2
f 45/39/2 39/41/2 36/40/2
f 39/41/2 37/42/2 38/43/2
f 36/40/2 39/41/2 38/43/2
f 43/44/2 44/45/2 26/37/2
f 36/40/2 43/44/2 26/37/2
f 51/46/2 52/47/2 33/48/2
f 52/47/2 38/43/2 33/48/2
f 40/49/2 50/50/2 46/51/2
f 50/50/11 47/52/11 54/53/11
f 41/54/12 50/50/12 54/53/12
f 47/52/2 51/46/2 34/55/2
f 36/40/2 26/37/2 27/38/2
f 37/42/2 33/48/2 38/43/2
f 51/46/2 33/48/2 34/55/2
f 50/50/2 41/54/2 46/51/2
f 48/13/2 49/56/2 41/54/2
f 49/56/2 46/51/2 41/54/2
f 35/57/2 53/58/2 30/59/2
f 53/58/2 48/13/2 32/12/2
f 32/12/2 30/59/2 53/58/2
f 58/60/2 31/61/2 57/14/2
f 31/61/2 32/12/2 57/14/2
f 41/54/2 42/62/2 48/13/2
f 42/62/2 57/14/2 48/13/2
f 34/55/13 56/63/13 47/52/13
f 56/63/14 55/64/14 54/53/14
f 47/52/15 56/63/15 54/53/15
f 61/15/2 60/17/2 62/65/2
f 64/20/2 65/66/2 68/67/2
f 68/67/2 60/17/2 66/68/2
f 60/17/2 59/16/2 66/68/2
f 66/68/2 3/1/2 68/67/2
f 68/67/2 3/1/2 64/20/2
f 3/1/2 67/18/2 64/20/2
