# Blender v2.82 (sub 7) OBJ File: 'CG_Test.blend'
# www.blender.org
mtllib TorHinweisWuerfel.mtl
o TorHinweisWuerfel_Cube_Cube.007
v -6.772362 3.389708 3.177340
v -6.772362 4.309708 3.177340
v -7.692360 4.309708 3.177340
v -7.692360 3.389708 3.177340
v -6.732361 3.389708 2.217341
v -6.732361 4.309708 2.217341
v -6.732361 4.309708 3.137341
v -6.732361 3.389708 3.137341
v -6.772362 4.349708 2.217341
v -7.692360 4.349708 2.217341
v -7.692360 4.349708 3.137341
v -6.772362 4.349708 3.137341
v -7.732361 3.389708 3.137341
v -7.732361 4.309708 3.137341
v -7.732361 4.309708 2.217341
v -7.732361 3.389708 2.217341
v -7.692360 3.389709 2.177340
v -7.692360 4.309708 2.177340
v -6.772362 4.309708 2.177340
v -6.772362 3.389709 2.177340
v -7.692360 3.349708 3.137341
v -7.692360 3.349708 2.217341
v -6.772362 3.349708 2.217341
v -6.772362 3.349708 3.137341
v -49.806458 3.389708 -21.246658
v -49.806458 4.309708 -21.246658
v -50.726456 4.309708 -21.246658
v -50.726456 3.389708 -21.246658
v -49.766457 3.389708 -22.206657
v -49.766457 4.309709 -22.206657
v -49.766457 4.309708 -21.286659
v -49.766457 3.389708 -21.286659
v -49.806458 4.349709 -22.206657
v -50.726456 4.349709 -22.206657
v -50.726456 4.349708 -21.286659
v -49.806458 4.349708 -21.286659
v -50.766457 3.389708 -21.286659
v -50.766457 4.309708 -21.286659
v -50.766457 4.309709 -22.206657
v -50.766457 3.389708 -22.206657
v -50.726456 3.389708 -22.246658
v -50.726456 4.309709 -22.246658
v -49.806458 4.309709 -22.246658
v -49.806458 3.389708 -22.246658
v -50.726456 3.349708 -21.286659
v -50.726456 3.349708 -22.206657
v -49.806458 3.349708 -22.206657
v -49.806458 3.349708 -21.286659
v 16.330864 2.969157 21.579103
v 16.330864 3.889156 21.579103
v 15.410866 3.889156 21.579103
v 15.410866 2.969157 21.579103
v 16.370865 2.969157 20.619104
v 16.370865 3.889156 20.619104
v 16.370865 3.889156 21.539104
v 16.370865 2.969157 21.539104
v 16.330864 3.929156 20.619104
v 15.410866 3.929156 20.619104
v 15.410866 3.929156 21.539104
v 16.330864 3.929156 21.539104
v 15.370865 2.969157 21.539104
v 15.370865 3.889156 21.539104
v 15.370865 3.889156 20.619104
v 15.370865 2.969157 20.619104
v 15.410866 2.969157 20.579103
v 15.410866 3.889156 20.579103
v 16.330864 3.889156 20.579103
v 16.330864 2.969157 20.579103
v 15.410866 2.929157 21.539104
v 15.410866 2.929157 20.619104
v 16.330864 2.929157 20.619104
v 16.330864 2.929157 21.539104
vt 0.615000 0.760000
vt 0.385000 0.990000
vt 0.385000 0.760000
vt 0.615000 0.510000
vt 0.385000 0.740000
vt 0.385000 0.510000
vt 0.865000 0.510000
vt 0.635000 0.740000
vt 0.635000 0.510000
vt 0.615000 0.010000
vt 0.385000 0.240000
vt 0.385000 0.010000
vt 0.615000 0.260000
vt 0.385000 0.490000
vt 0.385000 0.260000
vt 0.135000 0.740000
vt 0.135000 0.750000
vt 0.125000 0.740000
vt 0.615000 0.990000
vt 0.625000 0.990000
vt 0.615000 1.000000
vt 0.865000 0.500000
vt 0.875000 0.510000
vt 0.135000 0.510000
vt 0.125000 0.510000
vt 0.135000 0.500000
vt 0.625000 0.510000
vt 0.635000 0.500000
vt 0.365000 0.510000
vt 0.365000 0.500000
vt 0.375000 0.510000
vt 0.635000 0.750000
vt 0.625000 0.740000
vt 0.365000 0.740000
vt 0.375000 0.740000
vt 0.365000 0.750000
vt 0.375000 0.010000
vt 0.385000 1.000000
vt 0.875000 0.740000
vt 0.865000 0.740000
vt 0.615000 0.240000
vt 0.375000 0.260000
vt 0.615000 0.490000
vt 0.615000 0.740000
vt 0.615000 0.760000
vt 0.385000 0.990000
vt 0.385000 0.760000
vt 0.615000 0.510000
vt 0.385000 0.740000
vt 0.385000 0.510000
vt 0.865000 0.510000
vt 0.635000 0.740000
vt 0.635000 0.510000
vt 0.615000 0.010000
vt 0.385000 0.240000
vt 0.385000 0.010000
vt 0.615000 0.260000
vt 0.385000 0.490000
vt 0.385000 0.260000
vt 0.135000 0.740000
vt 0.135000 0.750000
vt 0.125000 0.740000
vt 0.615000 0.990000
vt 0.625000 0.990000
vt 0.615000 1.000000
vt 0.865000 0.500000
vt 0.875000 0.510000
vt 0.135000 0.510000
vt 0.125000 0.510000
vt 0.135000 0.500000
vt 0.625000 0.510000
vt 0.635000 0.500000
vt 0.365000 0.510000
vt 0.365000 0.500000
vt 0.375000 0.510000
vt 0.635000 0.750000
vt 0.625000 0.740000
vt 0.365000 0.740000
vt 0.375000 0.740000
vt 0.365000 0.750000
vt 0.375000 0.010000
vt 0.385000 1.000000
vt 0.875000 0.740000
vt 0.865000 0.740000
vt 0.615000 0.240000
vt 0.375000 0.260000
vt 0.615000 0.490000
vt 0.615000 0.740000
vt 0.615000 0.760000
vt 0.385000 0.990000
vt 0.385000 0.760000
vt 0.615000 0.510000
vt 0.385000 0.740000
vt 0.385000 0.510000
vt 0.865000 0.510000
vt 0.635000 0.740000
vt 0.635000 0.510000
vt 0.615000 0.010000
vt 0.385000 0.240000
vt 0.385000 0.010000
vt 0.615000 0.260000
vt 0.385000 0.490000
vt 0.385000 0.260000
vt 0.135000 0.740000
vt 0.135000 0.750000
vt 0.125000 0.740000
vt 0.615000 0.990000
vt 0.625000 0.990000
vt 0.615000 1.000000
vt 0.865000 0.500000
vt 0.875000 0.510000
vt 0.135000 0.510000
vt 0.125000 0.510000
vt 0.135000 0.500000
vt 0.625000 0.510000
vt 0.635000 0.500000
vt 0.365000 0.510000
vt 0.365000 0.500000
vt 0.375000 0.510000
vt 0.635000 0.750000
vt 0.625000 0.740000
vt 0.365000 0.740000
vt 0.375000 0.740000
vt 0.365000 0.750000
vt 0.375000 0.010000
vt 0.385000 1.000000
vt 0.875000 0.740000
vt 0.865000 0.740000
vt 0.615000 0.240000
vt 0.375000 0.260000
vt 0.615000 0.490000
vt 0.615000 0.740000
vt 0.375000 0.240000
vt 0.375000 0.490000
vt 0.625000 0.760000
vt 0.375000 0.240000
vt 0.375000 0.490000
vt 0.625000 0.760000
vt 0.375000 0.240000
vt 0.375000 0.490000
vt 0.625000 0.760000
vn 0.0000 -0.0000 1.0000
vn 1.0000 -0.0000 0.0000
vn 0.0000 1.0000 0.0000
vn -1.0000 0.0000 0.0000
vn 0.0000 0.0000 -1.0000
vn -0.5773 -0.5773 0.5774
vn -0.5773 0.5773 0.5774
vn -0.5773 0.5774 -0.5774
vn -0.5773 -0.5774 -0.5773
vn 0.5773 0.5774 -0.5774
vn 0.5773 -0.5774 -0.5773
vn 0.5773 0.5774 0.5774
vn 0.5773 -0.5774 0.5774
vn -0.7071 -0.7071 0.0000
vn -0.7071 0.0000 0.7071
vn -0.7071 0.7071 0.0000
vn -0.7071 -0.0000 -0.7071
vn 0.0000 -0.7071 -0.7071
vn 0.0000 0.7071 -0.7071
vn 0.7071 0.0000 -0.7071
vn 0.7071 -0.7071 0.0000
vn 0.7071 0.7071 0.0000
vn 0.7071 -0.0000 0.7071
vn 0.0000 -0.7071 0.7071
vn 0.0000 0.7071 0.7071
vn 0.0000 -1.0000 0.0000
vn -0.5774 -0.5773 0.5774
vn -0.5774 0.5773 0.5774
vn -0.5774 0.5773 -0.5774
vn -0.5774 -0.5773 -0.5774
vn 0.5774 0.5774 -0.5774
vn 0.5774 -0.5774 -0.5774
vn 0.5773 0.5773 0.5774
vn 0.5774 -0.5774 0.5774
vn -0.5774 -0.5774 0.5774
vn -0.5774 0.5774 0.5774
vn -0.5774 0.5774 -0.5773
vn -0.5774 -0.5774 -0.5773
vn 0.5774 0.5774 -0.5773
vn 0.5774 -0.5774 -0.5773
vn 0.5774 0.5773 0.5774
vn 0.5774 -0.5773 0.5774
usemtl None.006
s 1
f 2/1/1 4/2/1 1/3/1
f 6/4/2 8/5/2 5/6/2
f 10/7/3 12/8/3 9/9/3
f 14/10/4 16/11/4 13/12/4
f 18/13/5 20/14/5 17/15/5
f 21/16/6 4/17/6 13/18/6
f 3/19/7 11/20/7 14/21/7
f 10/7/8 18/22/8 15/23/8
f 22/24/9 16/25/9 17/26/9
f 9/9/10 6/27/10 19/28/10
f 23/29/11 20/30/11 5/31/11
f 12/8/12 2/32/12 7/33/12
f 24/34/13 8/35/13 1/36/13
f 16/11/14 21/37/14 13/12/14
f 3/19/15 13/38/15 4/2/15
f 10/7/16 14/39/16 11/40/16
f 17/15/17 15/41/17 18/13/17
f 20/14/18 22/42/18 17/15/18
f 9/9/19 18/22/19 10/7/19
f 5/6/20 19/43/20 6/4/20
f 8/5/21 23/29/21 5/6/21
f 12/8/22 6/4/22 9/9/22
f 1/3/23 7/44/23 2/1/23
f 24/34/24 4/17/24 21/16/24
f 2/1/25 11/20/25 3/19/25
f 23/29/26 21/16/26 22/24/26
f 26/45/1 28/46/1 25/47/1
f 30/48/2 32/49/2 29/50/2
f 34/51/3 36/52/3 33/53/3
f 38/54/4 40/55/4 37/56/4
f 42/57/5 44/58/5 41/59/5
f 45/60/27 28/61/27 37/62/27
f 27/63/28 35/64/28 38/65/28
f 34/51/29 42/66/29 39/67/29
f 46/68/30 40/69/30 41/70/30
f 33/53/31 30/71/31 43/72/31
f 47/73/32 44/74/32 29/75/32
f 36/52/33 26/76/33 31/77/33
f 48/78/34 32/79/34 25/80/34
f 40/55/14 45/81/14 37/56/14
f 27/63/15 37/82/15 28/46/15
f 34/51/16 38/83/16 35/84/16
f 41/59/17 39/85/17 42/57/17
f 44/58/18 46/86/18 41/59/18
f 33/53/19 42/66/19 34/51/19
f 29/50/20 43/87/20 30/48/20
f 32/49/21 47/73/21 29/50/21
f 36/52/22 30/48/22 33/53/22
f 25/47/23 31/88/23 26/45/23
f 48/78/24 28/61/24 45/60/24
f 26/45/25 35/64/25 27/63/25
f 47/73/26 45/60/26 46/68/26
f 50/89/1 52/90/1 49/91/1
f 54/92/2 56/93/2 53/94/2
f 58/95/3 60/96/3 57/97/3
f 62/98/4 64/99/4 61/100/4
f 66/101/5 68/102/5 65/103/5
f 69/104/35 52/105/35 61/106/35
f 51/107/36 59/108/36 62/109/36
f 58/95/37 66/110/37 63/111/37
f 70/112/38 64/113/38 65/114/38
f 57/97/39 54/115/39 67/116/39
f 71/117/40 68/118/40 53/119/40
f 60/96/41 50/120/41 55/121/41
f 72/122/42 56/123/42 49/124/42
f 64/99/14 69/125/14 61/100/14
f 51/107/15 61/126/15 52/90/15
f 58/95/16 62/127/16 59/128/16
f 65/103/17 63/129/17 66/101/17
f 68/102/18 70/130/18 65/103/18
f 57/97/19 66/110/19 58/95/19
f 53/94/20 67/131/20 54/92/20
f 56/93/21 71/117/21 53/94/21
f 60/96/22 54/92/22 57/97/22
f 49/91/23 55/132/23 50/89/23
f 72/122/24 52/105/24 69/104/24
f 50/89/25 59/108/25 51/107/25
f 71/117/26 69/104/26 70/112/26
f 2/1/1 3/19/1 4/2/1
f 6/4/2 7/44/2 8/5/2
f 10/7/3 11/40/3 12/8/3
f 14/10/4 15/41/4 16/11/4
f 18/13/5 19/43/5 20/14/5
f 16/11/14 22/133/14 21/37/14
f 3/19/15 14/21/15 13/38/15
f 10/7/16 15/23/16 14/39/16
f 17/15/17 16/11/17 15/41/17
f 20/14/18 23/134/18 22/42/18
f 9/9/19 19/28/19 18/22/19
f 5/6/20 20/14/20 19/43/20
f 8/5/21 24/34/21 23/29/21
f 12/8/22 7/44/22 6/4/22
f 1/3/23 8/5/23 7/44/23
f 24/34/24 1/36/24 4/17/24
f 2/1/25 12/135/25 11/20/25
f 23/29/26 24/34/26 21/16/26
f 26/45/1 27/63/1 28/46/1
f 30/48/2 31/88/2 32/49/2
f 34/51/3 35/84/3 36/52/3
f 38/54/4 39/85/4 40/55/4
f 42/57/5 43/87/5 44/58/5
f 40/55/14 46/136/14 45/81/14
f 27/63/15 38/65/15 37/82/15
f 34/51/16 39/67/16 38/83/16
f 41/59/17 40/55/17 39/85/17
f 44/58/18 47/137/18 46/86/18
f 33/53/19 43/72/19 42/66/19
f 29/50/20 44/58/20 43/87/20
f 32/49/21 48/78/21 47/73/21
f 36/52/22 31/88/22 30/48/22
f 25/47/23 32/49/23 31/88/23
f 48/78/24 25/80/24 28/61/24
f 26/45/25 36/138/25 35/64/25
f 47/73/26 48/78/26 45/60/26
f 50/89/1 51/107/1 52/90/1
f 54/92/2 55/132/2 56/93/2
f 58/95/3 59/128/3 60/96/3
f 62/98/4 63/129/4 64/99/4
f 66/101/5 67/131/5 68/102/5
f 64/99/14 70/139/14 69/125/14
f 51/107/15 62/109/15 61/126/15
f 58/95/16 63/111/16 62/127/16
f 65/103/17 64/99/17 63/129/17
f 68/102/18 71/140/18 70/130/18
f 57/97/19 67/116/19 66/110/19
f 53/94/20 68/102/20 67/131/20
f 56/93/21 72/122/21 71/117/21
f 60/96/22 55/132/22 54/92/22
f 49/91/23 56/93/23 55/132/23
f 72/122/24 49/124/24 52/105/24
f 50/89/25 60/141/25 59/108/25
f 71/117/26 72/122/26 69/104/26
