# Blender v2.82 (sub 7) OBJ File: 'CG_Test.blend'
# www.blender.org
mtllib Blockade_Mondsichel.mtl
o Blockade_Mondsichel_Cube.023
v -65.753113 0.000002 -54.431622
v -65.753113 1.500002 -54.431622
v -66.813774 0.000002 -53.370960
v -66.813774 1.500002 -53.370960
v -66.813774 0.000002 -55.492283
v -66.813774 1.500002 -55.492283
v -67.874435 0.000002 -54.431622
v -67.874435 1.500002 -54.431622
v 56.869003 0.000006 -23.952747
v 56.869003 1.500006 -23.952747
v 56.869003 0.000006 -22.452747
v 56.869003 1.500006 -22.452747
v 55.369003 0.000006 -23.952749
v 55.369003 1.500006 -23.952749
v 55.369003 0.000006 -22.452747
v 55.369003 1.500006 -22.452747
v 47.914413 0.000008 20.754423
v 47.914413 1.500008 20.754423
v 47.914410 0.000008 22.254417
v 47.914410 1.500008 22.254417
v 46.414417 0.000008 20.754425
v 46.414417 1.500008 20.754425
v 46.414413 0.000008 22.254421
v 46.414413 1.500008 22.254421
vt 0.625000 0.000000
vt 0.375000 0.250000
vt 0.375000 0.000000
vt 0.625000 0.250000
vt 0.375000 0.500000
vt 0.625000 0.500000
vt 0.375000 0.750000
vt 0.625000 0.750000
vt 0.375000 1.000000
vt 0.125000 0.750000
vt 0.125000 0.500000
vt 0.875000 0.500000
vt 0.625000 0.000000
vt 0.375000 0.250000
vt 0.375000 0.000000
vt 0.625000 0.250000
vt 0.375000 0.500000
vt 0.625000 0.500000
vt 0.375000 0.750000
vt 0.625000 0.750000
vt 0.375000 1.000000
vt 0.125000 0.750000
vt 0.125000 0.500000
vt 0.875000 0.500000
vt 0.625000 0.000000
vt 0.375000 0.250000
vt 0.375000 0.000000
vt 0.625000 0.250000
vt 0.375000 0.500000
vt 0.625000 0.500000
vt 0.375000 0.750000
vt 0.625000 0.750000
vt 0.375000 1.000000
vt 0.125000 0.500000
vt 0.125000 0.750000
vt 0.875000 0.500000
vt 0.625000 1.000000
vt 0.875000 0.750000
vt 0.625000 1.000000
vt 0.875000 0.750000
vt 0.625000 1.000000
vt 0.875000 0.750000
vn 0.7071 0.0000 0.7071
vn -0.7071 0.0000 0.7071
vn -0.7071 0.0000 -0.7071
vn 0.7071 0.0000 -0.7071
vn 0.0000 -1.0000 0.0000
vn 0.0000 1.0000 0.0000
vn 1.0000 0.0000 0.0000
vn 0.0000 0.0000 1.0000
vn -1.0000 0.0000 0.0000
vn 0.0000 0.0000 -1.0000
usemtl None
s off
f 2/1/1 3/2/1 1/3/1
f 4/4/2 7/5/2 3/2/2
f 8/6/3 5/7/3 7/5/3
f 6/8/4 1/9/4 5/7/4
f 7/5/5 1/10/5 3/11/5
f 4/12/6 6/8/6 8/6/6
f 10/13/7 11/14/7 9/15/7
f 12/16/8 15/17/8 11/14/8
f 16/18/9 13/19/9 15/17/9
f 14/20/10 9/21/10 13/19/10
f 15/17/5 9/22/5 11/23/5
f 12/24/6 14/20/6 16/18/6
f 18/25/7 19/26/7 17/27/7
f 20/28/8 23/29/8 19/26/8
f 24/30/9 21/31/9 23/29/9
f 22/32/10 17/33/10 21/31/10
f 19/34/5 21/31/5 17/35/5
f 20/36/6 22/32/6 24/30/6
f 2/1/1 4/4/1 3/2/1
f 4/4/2 8/6/2 7/5/2
f 8/6/3 6/8/3 5/7/3
f 6/8/4 2/37/4 1/9/4
f 7/5/5 5/7/5 1/10/5
f 4/12/6 2/38/6 6/8/6
f 10/13/7 12/16/7 11/14/7
f 12/16/8 16/18/8 15/17/8
f 16/18/9 14/20/9 13/19/9
f 14/20/10 10/39/10 9/21/10
f 15/17/5 13/19/5 9/22/5
f 12/24/6 10/40/6 14/20/6
f 18/25/7 20/28/7 19/26/7
f 20/28/8 24/30/8 23/29/8
f 24/30/9 22/32/9 21/31/9
f 22/32/10 18/41/10 17/33/10
f 19/34/5 23/29/5 21/31/5
f 20/36/6 18/42/6 22/32/6
