# Blender v2.82 (sub 7) OBJ File: 'CG_Test.blend'
# www.blender.org
mtllib R4_Trigger1.mtl
o R4_Trigger1_Cube.015
v 28.448944 0.228868 27.441622
v 28.369160 0.171133 27.458977
v 28.448944 1.171133 27.441622
v 28.369160 1.228868 27.458977
v 28.958378 0.228868 26.648943
v 28.941023 0.171133 26.569159
v 28.958378 1.171133 26.648943
v 28.941023 1.228868 26.569159
v 29.241623 0.228868 27.951056
v 29.258978 0.171133 28.030840
v 29.241623 1.171133 27.951056
v 29.258978 1.228868 28.030840
v 29.751057 0.228868 27.158377
v 29.830841 0.171133 27.141022
v 29.751057 1.171133 27.158377
v 29.830841 1.228868 27.141022
v 28.436085 0.250000 27.408236
v 28.436085 1.150000 27.408236
v 28.922668 1.150000 26.651114
v 28.922668 0.250000 26.651114
v 28.991764 0.250000 26.636084
v 28.991764 1.150000 26.636084
v 29.748886 1.150000 27.122667
v 29.748886 0.250000 27.122667
v 29.763916 0.250000 27.191763
v 29.763916 1.150000 27.191763
v 29.277332 1.150000 27.948885
v 29.277332 0.250000 27.948885
v 29.208237 0.250000 27.963915
v 29.208237 1.150000 27.963915
v 28.451115 1.150000 27.477331
v 28.451115 0.250000 27.477331
v 28.964731 0.200000 26.678146
v 29.721855 0.200000 27.164730
v 29.235270 0.200000 27.921852
v 28.478146 0.200000 27.435268
v 29.721855 1.200000 27.164730
v 28.964731 1.200000 26.678146
v 28.478146 1.200000 27.435268
v 29.235270 1.200000 27.921852
vt 0.625000 0.000000
vt 0.375000 0.000000
vt 0.375000 0.000000
vt 0.625000 0.000000
vt 0.625000 0.250000
vt 0.625000 0.000000
vt 0.625000 0.250000
vt 0.375000 0.250000
vt 0.625000 0.250000
vt 0.375000 0.250000
vt 0.375000 0.250000
vt 0.375000 0.000000
vt 0.625000 0.250000
vt 0.375000 0.250000
vt 0.625000 0.500000
vt 0.625000 0.500000
vt 0.375000 0.500000
vt 0.625000 0.500000
vt 0.375000 0.500000
vt 0.375000 0.500000
vt 0.625000 0.500000
vt 0.375000 0.500000
vt 0.625000 0.750000
vt 0.625000 0.750000
vt 0.375000 0.750000
vt 0.625000 0.750000
vt 0.375000 0.750000
vt 0.375000 0.750000
vt 0.625000 0.750000
vt 0.375000 0.750000
vt 0.625000 1.000000
vt 0.625000 1.000000
vt 0.375000 1.000000
vt 0.625000 1.000000
vt 0.375000 1.000000
vt 0.375000 1.000000
vt 0.375000 0.500000
vt 0.125000 0.500000
vt 0.125000 0.500000
vt 0.375000 0.750000
vt 0.125000 0.750000
vt 0.125000 0.750000
vt 0.125000 0.750000
vt 0.125000 0.500000
vt 0.875000 0.500000
vt 0.625000 0.500000
vt 0.875000 0.500000
vt 0.875000 0.750000
vt 0.875000 0.500000
vt 0.875000 0.750000
vt 0.625000 0.750000
vt 0.875000 0.750000
vn 0.9332 0.0000 -0.3594
vn -0.6041 0.0000 -0.7969
vn 0.4969 -0.8069 0.3194
vn -0.7900 -0.3438 -0.5077
vn 0.0607 0.0000 0.9982
vn -0.9758 0.0000 -0.2185
vn 0.4970 0.8069 0.3194
vn -0.7900 0.3437 -0.5077
vn 0.3594 0.0000 0.9332
vn 0.7969 0.0000 -0.6042
vn -0.3194 -0.8069 0.4969
vn 0.5077 -0.3437 -0.7900
vn -0.9982 0.0000 0.0607
vn 0.2185 0.0000 -0.9758
vn -0.3194 0.8069 0.4969
vn 0.5077 0.3437 -0.7900
vn -0.9332 0.0000 0.3594
vn 0.6041 0.0000 0.7969
vn -0.4969 -0.8069 -0.3193
vn 0.7900 -0.3437 0.5077
vn -0.0607 0.0000 -0.9982
vn 0.9758 0.0000 0.2185
vn -0.4969 0.8069 -0.3193
vn 0.7900 0.3437 0.5077
vn -0.3594 0.0000 -0.9332
vn -0.7969 0.0000 0.6042
vn 0.3194 -0.8069 -0.4969
vn -0.5077 -0.3437 0.7900
vn 0.9982 0.0000 -0.0607
vn -0.2185 0.0000 0.9758
vn 0.3194 0.8069 -0.4969
vn -0.5077 0.3437 0.7900
vn -0.4363 0.5907 0.6788
vn -0.1858 -0.9391 0.2892
vn -0.6788 0.5907 -0.4362
vn -0.2891 -0.9391 -0.1858
vn 0.4362 0.5907 -0.6788
vn 0.1858 -0.9391 -0.2892
vn 0.6788 0.5907 0.4362
vn 0.2891 -0.9391 0.1858
vn -0.4362 -0.5907 0.6788
vn -0.1858 0.9391 0.2892
vn 0.6788 -0.5907 0.4362
vn 0.2892 0.9391 0.1858
vn 0.4362 -0.5907 -0.6788
vn 0.1858 0.9391 -0.2891
vn -0.6788 -0.5907 -0.4362
vn -0.2892 0.9391 -0.1858
vn -0.6042 0.0000 -0.7969
vn 0.4969 -0.8069 0.3193
vn -0.7900 -0.3437 -0.5077
vn 0.0605 0.0000 0.9982
vn 0.4969 0.8069 0.3193
vn -0.7900 0.3438 -0.5077
vn 0.3595 0.0000 0.9331
vn 0.6042 0.0000 0.7968
vn -0.4969 -0.8069 -0.3194
vn -0.4969 0.8069 -0.3194
vn -0.3595 0.0000 -0.9331
vn -0.2186 0.0000 0.9758
vn 0.3193 0.8069 -0.4969
vn -0.4362 0.5907 0.6788
vn -0.1858 -0.9391 0.2891
vn -0.2892 -0.9391 -0.1858
vn 0.6788 0.5906 0.4363
vn 0.2892 -0.9391 0.1858
vn -0.4363 -0.5907 0.6788
vn -0.1858 0.9391 0.2891
vn 0.6788 -0.5906 0.4363
vn 0.2891 0.9391 0.1858
vn 0.4363 -0.5907 -0.6788
vn 0.1858 0.9391 -0.2892
vn -0.2891 0.9391 -0.1858
usemtl None
s off
f 18/1/1 1/2/1 17/3/1
f 17/3/2 4/4/2 18/1/2
f 19/5/3 3/6/3 18/1/3
f 18/1/4 8/7/4 19/5/4
f 20/8/5 7/9/5 19/5/5
f 19/5/6 6/10/6 20/8/6
f 17/3/7 5/11/7 20/8/7
f 20/8/8 2/12/8 17/3/8
f 22/13/9 5/11/9 21/14/9
f 21/14/10 8/7/10 22/13/10
f 23/15/11 7/9/11 22/13/11
f 22/13/12 16/16/12 23/15/12
f 24/17/13 15/18/13 23/15/13
f 23/15/14 14/19/14 24/17/14
f 21/14/15 13/20/15 24/17/15
f 24/17/16 6/10/16 21/14/16
f 26/21/17 13/20/17 25/22/17
f 25/22/18 16/16/18 26/21/18
f 27/23/19 15/18/19 26/21/19
f 26/21/20 12/24/20 27/23/20
f 28/25/21 11/26/21 27/23/21
f 27/23/22 10/27/22 28/25/22
f 25/22/23 9/28/23 28/25/23
f 28/25/24 14/19/24 25/22/24
f 30/29/25 9/28/25 29/30/25
f 29/30/26 12/24/26 30/29/26
f 31/31/27 11/26/27 30/29/27
f 30/29/28 4/32/28 31/31/28
f 32/33/29 3/34/29 31/31/29
f 31/31/30 2/35/30 32/33/30
f 29/30/31 1/36/31 32/33/31
f 32/33/32 10/27/32 29/30/32
f 34/37/33 5/38/33 33/39/33
f 33/39/34 14/19/34 34/37/34
f 35/40/35 13/20/35 34/37/35
f 34/37/36 10/27/36 35/40/36
f 36/41/37 9/28/37 35/40/37
f 35/40/38 2/42/38 36/41/38
f 33/39/39 1/43/39 36/41/39
f 36/41/40 6/44/40 33/39/40
f 38/45/41 15/18/41 37/46/41
f 37/46/42 8/47/42 38/45/42
f 39/48/43 7/49/43 38/45/43
f 38/45/44 4/50/44 39/48/44
f 40/51/45 3/52/45 39/48/45
f 39/48/46 12/24/46 40/51/46
f 37/46/47 11/26/47 40/51/47
f 40/51/48 16/16/48 37/46/48
f 18/1/1 3/6/1 1/2/1
f 17/3/49 2/12/49 4/4/49
f 19/5/50 7/9/50 3/6/50
f 18/1/51 4/4/51 8/7/51
f 20/8/52 5/11/52 7/9/52
f 19/5/6 8/7/6 6/10/6
f 17/3/53 1/2/53 5/11/53
f 20/8/54 6/10/54 2/12/54
f 22/13/55 7/9/55 5/11/55
f 21/14/10 6/10/10 8/7/10
f 23/15/11 15/18/11 7/9/11
f 22/13/12 8/7/12 16/16/12
f 24/17/13 13/20/13 15/18/13
f 23/15/14 16/16/14 14/19/14
f 21/14/15 5/11/15 13/20/15
f 24/17/16 14/19/16 6/10/16
f 26/21/17 15/18/17 13/20/17
f 25/22/56 14/19/56 16/16/56
f 27/23/57 11/26/57 15/18/57
f 26/21/20 16/16/20 12/24/20
f 28/25/21 9/28/21 11/26/21
f 27/23/22 12/24/22 10/27/22
f 25/22/58 13/20/58 9/28/58
f 28/25/24 10/27/24 14/19/24
f 30/29/59 11/26/59 9/28/59
f 29/30/26 10/27/26 12/24/26
f 31/31/27 3/34/27 11/26/27
f 30/29/28 12/24/28 4/32/28
f 32/33/29 1/36/29 3/34/29
f 31/31/60 4/32/60 2/35/60
f 29/30/61 9/28/61 1/36/61
f 32/33/32 2/35/32 10/27/32
f 34/37/62 13/20/62 5/38/62
f 33/39/63 6/44/63 14/19/63
f 35/40/35 9/28/35 13/20/35
f 34/37/64 14/19/64 10/27/64
f 36/41/37 1/43/37 9/28/37
f 35/40/38 10/27/38 2/42/38
f 33/39/65 5/38/65 1/43/65
f 36/41/66 2/42/66 6/44/66
f 38/45/67 7/49/67 15/18/67
f 37/46/68 16/16/68 8/47/68
f 39/48/69 3/52/69 7/49/69
f 38/45/70 8/47/70 4/50/70
f 40/51/71 11/26/71 3/52/71
f 39/48/72 4/50/72 12/24/72
f 37/46/47 15/18/47 11/26/47
f 40/51/73 12/24/73 16/16/73
